# MagicaVoxel @ Ephtracy

# group
o 

# material
mtllib new tall-tree.mtl
usemtl palette

# normals
vn -1 0 0
vn 1 0 0
vn 0 0 1
vn 0 0 -1
vn 0 -1 0
vn 0 1 0

# texcoords
vt 0.130859 0.5
vt 0.263672 0.5
vt 0.267578 0.5
vt 0.341797 0.5

# verts
v -1.9 2 2
v -1.9 2 -2
v -1.9 3 2
v -1.9 3 -2
v -1.9 4 2
v -1.9 4 -2
v -1.9 5 2
v -1.9 5 -2
v -1.9 6 2
v -1.9 6 -2
v -1.7 6 1.8
v -1.7 6 -1.7
v -1.7 7 1.8
v -1.7 7 -1.7
v -1.7 8 1.8
v -1.7 8 -1.7
v -0.5 0 0.5
v -0.5 0 -0.5
v -0.5 2 0.5
v -0.5 2 -0.5
v 0.5 0 0.5
v 0.5 0 -0.5
v 0.5 2 0.5
v 0.5 2 -0.5
v 1.8 6 1.8
v 1.8 6 -1.7
v 1.8 7 1.8
v 1.8 7 -1.7
v 1.8 8 1.8
v 1.8 8 -1.7
v 2 2 2
v 2 2 -2
v 2 3 2
v 2 3 -2
v 2 4 2
v 2 4 -2
v 2 5 2
v 2 5 -2
v 2 6 2
v 2 6 -2
v -1.9 2 2
v -1.9 3 2
v -1.9 4 2
v -1.9 5 2
v -1.9 6 2
v 2 2 2
v 2 3 2
v 2 4 2
v 2 5 2
v 2 6 2
v -1.7 6 1.8
v -1.7 7 1.8
v -1.7 8 1.8
v 1.8 6 1.8
v 1.8 7 1.8
v 1.8 8 1.8
v -0.5 0 0.5
v -0.5 2 0.5
v 0.5 0 0.5
v 0.5 2 0.5
v -0.5 0 -0.5
v -0.5 2 -0.5
v 0.5 0 -0.5
v 0.5 2 -0.5
v -1.7 6 -1.7
v -1.7 7 -1.7
v -1.7 8 -1.7
v 1.8 6 -1.7
v 1.8 7 -1.7
v 1.8 8 -1.7
v -1.9 2 -2
v -1.9 3 -2
v -1.9 4 -2
v -1.9 5 -2
v -1.9 6 -2
v 2 2 -2
v 2 3 -2
v 2 4 -2
v 2 5 -2
v 2 6 -2
v -0.5 0 0.5
v 0.5 0 0.5
v -0.5 0 -0.5
v 0.5 0 -0.5
v -1.9 2 2
v 2 2 2
v -0.5 2 0.5
v 0.5 2 0.5
v -0.5 2 -0.5
v 0.5 2 -0.5
v -1.9 2 -2
v 2 2 -2
v -1.9 6 2
v 2 6 2
v -1.7 6 1.8
v 1.8 6 1.8
v -1.7 6 -1.7
v 1.8 6 -1.7
v -1.9 6 -2
v 2 6 -2
v -1.7 8 1.8
v 1.8 8 1.8
v -1.7 8 -1.7
v 1.8 8 -1.7

# faces
f 3/3/1 2/3/1 1/3/1
f 4/3/1 2/3/1 3/3/1
f 5/4/1 4/4/1 3/4/1
f 6/4/1 4/4/1 5/4/1
f 7/3/1 6/3/1 5/3/1
f 8/3/1 6/3/1 7/3/1
f 9/4/1 8/4/1 7/4/1
f 10/4/1 8/4/1 9/4/1
f 13/3/1 12/3/1 11/3/1
f 14/3/1 12/3/1 13/3/1
f 15/4/1 14/4/1 13/4/1
f 16/4/1 14/4/1 15/4/1
f 19/1/1 18/1/1 17/1/1
f 20/1/1 18/1/1 19/1/1
f 21/1/2 22/1/2 23/1/2
f 23/1/2 22/1/2 24/1/2
f 25/3/2 26/3/2 27/3/2
f 27/3/2 26/3/2 28/3/2
f 27/4/2 28/4/2 29/4/2
f 29/4/2 28/4/2 30/4/2
f 31/3/2 32/3/2 33/3/2
f 33/3/2 32/3/2 34/3/2
f 33/4/2 34/4/2 35/4/2
f 35/4/2 34/4/2 36/4/2
f 35/3/2 36/3/2 37/3/2
f 37/3/2 36/3/2 38/3/2
f 37/4/2 38/4/2 39/4/2
f 39/4/2 38/4/2 40/4/2
f 46/3/3 42/3/3 41/3/3
f 47/4/3 43/4/3 42/4/3
f 47/3/3 42/3/3 46/3/3
f 48/3/3 44/3/3 43/3/3
f 48/4/3 43/4/3 47/4/3
f 49/4/3 45/4/3 44/4/3
f 49/3/3 44/3/3 48/3/3
f 50/4/3 45/4/3 49/4/3
f 54/3/3 52/3/3 51/3/3
f 55/4/3 53/4/3 52/4/3
f 55/3/3 52/3/3 54/3/3
f 56/4/3 53/4/3 55/4/3
f 59/1/3 58/1/3 57/1/3
f 60/1/3 58/1/3 59/1/3
f 61/1/4 62/1/4 63/1/4
f 63/1/4 62/1/4 64/1/4
f 65/3/4 66/3/4 68/3/4
f 66/4/4 67/4/4 69/4/4
f 68/3/4 66/3/4 69/3/4
f 69/4/4 67/4/4 70/4/4
f 71/3/4 72/3/4 76/3/4
f 72/4/4 73/4/4 77/4/4
f 76/3/4 72/3/4 77/3/4
f 73/3/4 74/3/4 78/3/4
f 77/4/4 73/4/4 78/4/4
f 74/4/4 75/4/4 79/4/4
f 78/3/4 74/3/4 79/3/4
f 79/4/4 75/4/4 80/4/4
f 83/1/5 82/1/5 81/1/5
f 84/1/5 82/1/5 83/1/5
f 87/3/5 86/3/5 85/3/5
f 88/3/5 86/3/5 87/3/5
f 89/3/5 87/3/5 85/3/5
f 90/3/5 86/3/5 88/3/5
f 91/3/5 89/3/5 85/3/5
f 91/3/5 90/3/5 89/3/5
f 92/3/5 86/3/5 90/3/5
f 92/3/5 90/3/5 91/3/5
f 93/4/6 94/4/6 95/4/6
f 95/4/6 94/4/6 96/4/6
f 93/4/6 95/4/6 97/4/6
f 96/4/6 94/4/6 98/4/6
f 93/4/6 97/4/6 99/4/6
f 97/4/6 98/4/6 99/4/6
f 98/4/6 94/4/6 100/4/6
f 99/4/6 98/4/6 100/4/6
f 101/4/6 102/4/6 103/4/6
f 103/4/6 102/4/6 104/4/6
