# MagicaVoxel @ Ephtracy

# group
o 

# material
mtllib sub_mc.mtl
usemtl palette

# normals
vn -1 0 0
vn 1 0 0
vn 0 0 1
vn 0 0 -1
vn 0 -1 0
vn 0 1 0

# texcoords
vt 0.0332031 0.5
vt 0.369141 0.5
vt 0.458984 0.5
vt 0.537109 0.5
vt 0.818359 0.5
vt 0.904297 0.5
vt 0.994141 0.5

# verts
v -0.4 0.3 0
v -0.4 0.3 -0.1
v -0.4 0.4 0
v -0.4 0.4 -0.1
v -0.4 0.6 0
v -0.4 0.6 -0.1
v -0.4 0.7 0
v -0.4 0.7 -0.1
v -0.4 0.8 0.1
v -0.4 0.8 -0.2
v -0.4 0.9 -0.2
v -0.4 0.9 -0.3
v -0.4 1.1 0.1
v -0.4 1.1 -0.3
v -0.3 0.4 0
v -0.3 0.4 -0.1
v -0.3 0.6 0
v -0.3 0.6 -0.1
v -0.3 0.6 -0.2
v -0.3 0.7 0.1
v -0.3 0.7 0
v -0.3 0.7 -0.1
v -0.3 0.7 -0.2
v -0.3 0.7 -0.3
v -0.3 0.8 0.1
v -0.3 0.8 -0.2
v -0.3 0.9 0.2
v -0.3 0.9 0.1
v -0.3 0.9 -0.2
v -0.3 0.9 -0.3
v -0.3 0.9 -0.4
v -0.3 1.1 0.2
v -0.3 1.1 0.1
v -0.3 1.1 -0.3
v -0.3 1.1 -0.4
v -0.3 1.2 0.1
v -0.3 1.2 -0.3
v -0.2 0 0.2
v -0.2 0 -0.1
v -0.2 0.1 0.2
v -0.2 0.1 0
v -0.2 0.1 -0.1
v -0.2 0.2 0
v -0.2 0.2 -0.1
v -0.2 0.3 0.1
v -0.2 0.3 0
v -0.2 0.3 -0.1
v -0.2 0.3 -0.2
v -0.2 0.4 0.1
v -0.2 0.4 0
v -0.2 0.4 -0.1
v -0.2 0.4 -0.2
v -0.2 0.5 -0.1
v -0.2 0.5 -0.2
v -0.2 0.6 0.1
v -0.2 0.6 0
v -0.2 0.6 -0.1
v -0.2 0.6 -0.2
v -0.2 0.6 -0.3
v -0.2 0.7 0.1
v -0.2 0.7 0
v -0.2 0.7 -0.2
v -0.2 0.7 -0.3
v -0.2 0.8 -0.3
v -0.2 0.8 -0.4
v -0.2 0.9 -0.3
v -0.2 0.9 -0.4
v -0.2 1.1 0.2
v -0.2 1.1 0.1
v -0.2 1.2 0.2
v -0.2 1.2 0.1
v -0.2 1.2 0
v -0.2 1.2 -0.2
v -0.2 1.3 0
v -0.2 1.3 -0.2
v -0.1 0.7 -0.3
v -0.1 0.7 -0.4
v -0.1 0.8 -0.3
v -0.1 0.8 -0.4
v -0.1 0.9 0.2
v -0.1 0.9 0.1
v -0.1 1 0.2
v -0.1 1 0.1
v 0.1 0 0.2
v 0.1 0 -0.1
v 0.1 0.1 0.2
v 0.1 0.1 0
v 0.1 0.1 -0.1
v 0.1 0.2 0
v 0.1 0.2 -0.1
v 0.1 0.3 0
v 0.1 0.3 -0.1
v 0.2 0.9 0.2
v 0.2 0.9 0.1
v 0.2 1 0.2
v 0.2 1 0.1
v 0.3 0.3 0
v 0.3 0.3 -0.1
v 0.3 0.4 0
v 0.3 0.4 -0.1
v -0.3 0.3 0
v -0.3 0.3 -0.1
v -0.3 0.4 0
v -0.3 0.4 -0.1
v -0.2 0.9 0.2
v -0.2 0.9 0.1
v -0.2 1 0.2
v -0.2 1 0.1
v -0.1 0 0.2
v -0.1 0 -0.1
v -0.1 0.1 0.2
v -0.1 0.1 0
v -0.1 0.1 -0.1
v -0.1 0.2 0
v -0.1 0.2 -0.1
v -0.1 0.3 0
v -0.1 0.3 -0.1
v 0 0.9 0.2
v 0 0.9 0.1
v 0 1 0.2
v 0 1 0.1
v 0.1 0.7 -0.3
v 0.1 0.7 -0.4
v 0.1 0.8 -0.3
v 0.1 0.8 -0.4
v 0.2 0 0.2
v 0.2 0 -0.1
v 0.2 0.1 0.2
v 0.2 0.1 0
v 0.2 0.1 -0.1
v 0.2 0.2 0
v 0.2 0.2 -0.1
v 0.2 0.3 0.1
v 0.2 0.3 0
v 0.2 0.3 -0.1
v 0.2 0.3 -0.2
v 0.2 0.4 0
v 0.2 0.4 -0.1
v 0.2 0.4 -0.2
v 0.2 0.5 -0.1
v 0.2 0.5 -0.2
v 0.2 0.6 0.1
v 0.2 0.6 0
v 0.2 0.6 -0.1
v 0.2 0.6 -0.2
v 0.2 0.6 -0.3
v 0.2 0.7 0.1
v 0.2 0.7 0
v 0.2 0.7 -0.2
v 0.2 0.7 -0.3
v 0.2 0.8 -0.3
v 0.2 0.8 -0.4
v 0.2 0.9 -0.3
v 0.2 0.9 -0.4
v 0.2 1.1 0.2
v 0.2 1.1 0.1
v 0.2 1.2 0.2
v 0.2 1.2 0.1
v 0.2 1.2 0
v 0.2 1.2 -0.2
v 0.2 1.3 0
v 0.2 1.3 -0.2
v 0.3 0.4 0
v 0.3 0.4 -0.1
v 0.3 0.6 0
v 0.3 0.6 -0.1
v 0.3 0.6 -0.2
v 0.3 0.7 0.1
v 0.3 0.7 0
v 0.3 0.7 -0.1
v 0.3 0.7 -0.2
v 0.3 0.7 -0.3
v 0.3 0.8 0.1
v 0.3 0.8 -0.2
v 0.3 0.9 0.2
v 0.3 0.9 0.1
v 0.3 0.9 -0.2
v 0.3 0.9 -0.3
v 0.3 0.9 -0.4
v 0.3 1.1 0.2
v 0.3 1.1 0.1
v 0.3 1.1 -0.3
v 0.3 1.1 -0.4
v 0.3 1.2 0.1
v 0.3 1.2 -0.3
v 0.4 0.3 0
v 0.4 0.3 -0.1
v 0.4 0.4 0
v 0.4 0.4 -0.1
v 0.4 0.6 0
v 0.4 0.6 -0.1
v 0.4 0.7 0
v 0.4 0.7 -0.1
v 0.4 0.8 0.1
v 0.4 0.8 -0.2
v 0.4 0.9 -0.2
v 0.4 0.9 -0.3
v 0.4 1.1 0.1
v 0.4 1.1 -0.3
v -0.3 0.9 0.2
v -0.3 1.1 0.2
v -0.2 0 0.2
v -0.2 0.1 0.2
v -0.2 0.9 0.2
v -0.2 1 0.2
v -0.2 1.1 0.2
v -0.2 1.2 0.2
v -0.1 0 0.2
v -0.1 0.1 0.2
v -0.1 0.9 0.2
v -0.1 1 0.2
v 0 0.9 0.2
v 0 1 0.2
v 0.1 0 0.2
v 0.1 0.1 0.2
v 0.2 0 0.2
v 0.2 0.1 0.2
v 0.2 0.9 0.2
v 0.2 1 0.2
v 0.2 1.1 0.2
v 0.2 1.2 0.2
v 0.3 0.9 0.2
v 0.3 1.1 0.2
v -0.4 0.8 0.1
v -0.4 1.1 0.1
v -0.3 0.7 0.1
v -0.3 0.8 0.1
v -0.3 0.9 0.1
v -0.3 1.1 0.1
v -0.3 1.2 0.1
v -0.2 0.3 0.1
v -0.2 0.4 0.1
v -0.2 0.6 0.1
v -0.2 0.7 0.1
v -0.2 0.8 0.1
v -0.2 0.9 0.1
v -0.2 1 0.1
v -0.2 1.1 0.1
v -0.2 1.2 0.1
v -0.1 0.3 0.1
v -0.1 0.4 0.1
v -0.1 0.5 0.1
v -0.1 0.6 0.1
v -0.1 0.7 0.1
v -0.1 0.8 0.1
v -0.1 0.9 0.1
v -0.1 1 0.1
v 0 0.4 0.1
v 0 0.5 0.1
v 0 0.6 0.1
v 0 0.9 0.1
v 0 1 0.1
v 0.1 0.4 0.1
v 0.1 0.5 0.1
v 0.1 0.6 0.1
v 0.1 0.7 0.1
v 0.1 0.8 0.1
v 0.1 0.9 0.1
v 0.2 0.3 0.1
v 0.2 0.6 0.1
v 0.2 0.7 0.1
v 0.2 0.8 0.1
v 0.2 0.9 0.1
v 0.2 1 0.1
v 0.2 1.1 0.1
v 0.2 1.2 0.1
v 0.3 0.7 0.1
v 0.3 0.8 0.1
v 0.3 0.9 0.1
v 0.3 1.1 0.1
v 0.3 1.2 0.1
v 0.4 0.8 0.1
v 0.4 1.1 0.1
v -0.4 0.3 0
v -0.4 0.4 0
v -0.4 0.6 0
v -0.4 0.7 0
v -0.3 0.3 0
v -0.3 0.4 0
v -0.3 0.6 0
v -0.3 0.7 0
v -0.2 0.1 0
v -0.2 0.2 0
v -0.2 0.3 0
v -0.2 0.4 0
v -0.2 0.6 0
v -0.2 0.7 0
v -0.2 1.2 0
v -0.2 1.3 0
v -0.1 0.1 0
v -0.1 0.2 0
v -0.1 0.3 0
v 0.1 0.1 0
v 0.1 0.2 0
v 0.1 0.3 0
v 0.2 0.1 0
v 0.2 0.2 0
v 0.2 0.3 0
v 0.2 0.4 0
v 0.2 0.6 0
v 0.2 0.7 0
v 0.2 1.2 0
v 0.2 1.3 0
v 0.3 0.3 0
v 0.3 0.4 0
v 0.3 0.6 0
v 0.3 0.7 0
v 0.4 0.3 0
v 0.4 0.4 0
v 0.4 0.6 0
v 0.4 0.7 0
v -0.4 0.3 -0.1
v -0.4 0.4 -0.1
v -0.4 0.6 -0.1
v -0.4 0.7 -0.1
v -0.3 0.3 -0.1
v -0.3 0.4 -0.1
v -0.3 0.6 -0.1
v -0.3 0.7 -0.1
v -0.2 0 -0.1
v -0.2 0.1 -0.1
v -0.2 0.2 -0.1
v -0.2 0.3 -0.1
v -0.2 0.4 -0.1
v -0.2 0.5 -0.1
v -0.2 0.6 -0.1
v -0.1 0 -0.1
v -0.1 0.1 -0.1
v -0.1 0.2 -0.1
v -0.1 0.3 -0.1
v 0.1 0 -0.1
v 0.1 0.1 -0.1
v 0.1 0.2 -0.1
v 0.1 0.3 -0.1
v 0.2 0 -0.1
v 0.2 0.1 -0.1
v 0.2 0.2 -0.1
v 0.2 0.3 -0.1
v 0.2 0.4 -0.1
v 0.2 0.5 -0.1
v 0.2 0.6 -0.1
v 0.3 0.3 -0.1
v 0.3 0.4 -0.1
v 0.3 0.6 -0.1
v 0.3 0.7 -0.1
v 0.4 0.3 -0.1
v 0.4 0.4 -0.1
v 0.4 0.6 -0.1
v 0.4 0.7 -0.1
v -0.4 0.8 -0.2
v -0.4 0.9 -0.2
v -0.3 0.6 -0.2
v -0.3 0.7 -0.2
v -0.3 0.8 -0.2
v -0.3 0.9 -0.2
v -0.2 0.3 -0.2
v -0.2 0.4 -0.2
v -0.2 0.5 -0.2
v -0.2 0.6 -0.2
v -0.2 0.7 -0.2
v -0.2 1.2 -0.2
v -0.2 1.3 -0.2
v -0.1 0.3 -0.2
v -0.1 0.4 -0.2
v -0.1 0.5 -0.2
v 0 0.3 -0.2
v 0 0.4 -0.2
v 0 0.5 -0.2
v 0 0.6 -0.2
v 0.1 0.4 -0.2
v 0.1 0.5 -0.2
v 0.1 0.6 -0.2
v 0.2 0.3 -0.2
v 0.2 0.4 -0.2
v 0.2 0.5 -0.2
v 0.2 0.6 -0.2
v 0.2 0.7 -0.2
v 0.2 1.2 -0.2
v 0.2 1.3 -0.2
v 0.3 0.6 -0.2
v 0.3 0.7 -0.2
v 0.3 0.8 -0.2
v 0.3 0.9 -0.2
v 0.4 0.8 -0.2
v 0.4 0.9 -0.2
v -0.4 0.9 -0.3
v -0.4 1.1 -0.3
v -0.3 0.7 -0.3
v -0.3 0.9 -0.3
v -0.3 1.1 -0.3
v -0.3 1.2 -0.3
v -0.2 0.6 -0.3
v -0.2 0.7 -0.3
v -0.2 0.8 -0.3
v -0.2 0.9 -0.3
v -0.1 0.7 -0.3
v -0.1 0.8 -0.3
v 0.1 0.7 -0.3
v 0.1 0.8 -0.3
v 0.2 0.6 -0.3
v 0.2 0.7 -0.3
v 0.2 0.8 -0.3
v 0.2 0.9 -0.3
v 0.3 0.7 -0.3
v 0.3 0.9 -0.3
v 0.3 1.1 -0.3
v 0.3 1.2 -0.3
v 0.4 0.9 -0.3
v 0.4 1.1 -0.3
v -0.3 0.9 -0.4
v -0.3 1.1 -0.4
v -0.2 0.8 -0.4
v -0.2 0.9 -0.4
v -0.1 0.7 -0.4
v -0.1 0.8 -0.4
v 0.1 0.7 -0.4
v 0.1 0.8 -0.4
v 0.2 0.8 -0.4
v 0.2 0.9 -0.4
v 0.3 0.9 -0.4
v 0.3 1.1 -0.4
v -0.2 0 0.2
v -0.1 0 0.2
v 0.1 0 0.2
v 0.2 0 0.2
v -0.2 0 -0.1
v -0.1 0 -0.1
v 0.1 0 -0.1
v 0.2 0 -0.1
v -0.2 0.3 0.1
v -0.1 0.3 0.1
v 0.2 0.3 0.1
v -0.4 0.3 0
v -0.3 0.3 0
v -0.2 0.3 0
v -0.1 0.3 0
v 0.1 0.3 0
v 0.2 0.3 0
v 0.3 0.3 0
v 0.4 0.3 0
v -0.4 0.3 -0.1
v -0.3 0.3 -0.1
v -0.2 0.3 -0.1
v -0.1 0.3 -0.1
v 0 0.3 -0.1
v 0.1 0.3 -0.1
v 0.2 0.3 -0.1
v 0.3 0.3 -0.1
v 0.4 0.3 -0.1
v -0.2 0.3 -0.2
v -0.1 0.3 -0.2
v 0 0.3 -0.2
v 0.2 0.3 -0.2
v -0.3 0.4 0
v -0.2 0.4 0
v 0.2 0.4 0
v 0.3 0.4 0
v -0.3 0.4 -0.1
v -0.2 0.4 -0.1
v 0.2 0.4 -0.1
v 0.3 0.4 -0.1
v -0.4 0.6 0
v -0.3 0.6 0
v 0.3 0.6 0
v 0.4 0.6 0
v -0.4 0.6 -0.1
v -0.3 0.6 -0.1
v -0.2 0.6 -0.1
v 0.2 0.6 -0.1
v 0.3 0.6 -0.1
v 0.4 0.6 -0.1
v -0.3 0.6 -0.2
v -0.2 0.6 -0.2
v 0 0.6 -0.2
v 0.1 0.6 -0.2
v 0.2 0.6 -0.2
v 0.3 0.6 -0.2
v -0.2 0.6 -0.3
v 0.2 0.6 -0.3
v -0.3 0.7 0.1
v -0.2 0.7 0.1
v 0.2 0.7 0.1
v 0.3 0.7 0.1
v -0.3 0.7 0
v -0.2 0.7 0
v 0.2 0.7 0
v 0.3 0.7 0
v -0.3 0.7 -0.2
v -0.2 0.7 -0.2
v 0.2 0.7 -0.2
v 0.3 0.7 -0.2
v -0.3 0.7 -0.3
v -0.2 0.7 -0.3
v -0.1 0.7 -0.3
v 0.1 0.7 -0.3
v 0.2 0.7 -0.3
v 0.3 0.7 -0.3
v -0.1 0.7 -0.4
v 0.1 0.7 -0.4
v -0.4 0.8 0.1
v -0.3 0.8 0.1
v 0.3 0.8 0.1
v 0.4 0.8 0.1
v -0.4 0.8 -0.2
v -0.3 0.8 -0.2
v 0.3 0.8 -0.2
v 0.4 0.8 -0.2
v -0.2 0.8 -0.3
v -0.1 0.8 -0.3
v 0.1 0.8 -0.3
v 0.2 0.8 -0.3
v -0.2 0.8 -0.4
v -0.1 0.8 -0.4
v 0.1 0.8 -0.4
v 0.2 0.8 -0.4
v -0.3 0.9 0.2
v -0.2 0.9 0.2
v -0.1 0.9 0.2
v 0 0.9 0.2
v 0.2 0.9 0.2
v 0.3 0.9 0.2
v -0.3 0.9 0.1
v -0.2 0.9 0.1
v -0.1 0.9 0.1
v 0 0.9 0.1
v 0.2 0.9 0.1
v 0.3 0.9 0.1
v -0.4 0.9 -0.2
v -0.3 0.9 -0.2
v 0.3 0.9 -0.2
v 0.4 0.9 -0.2
v -0.4 0.9 -0.3
v -0.3 0.9 -0.3
v -0.2 0.9 -0.3
v 0.2 0.9 -0.3
v 0.3 0.9 -0.3
v 0.4 0.9 -0.3
v -0.3 0.9 -0.4
v -0.2 0.9 -0.4
v 0.2 0.9 -0.4
v 0.3 0.9 -0.4
v -0.2 1 0.2
v -0.1 1 0.2
v 0 1 0.2
v 0.2 1 0.2
v -0.2 1 0.1
v -0.1 1 0.1
v 0 1 0.1
v 0.2 1 0.1
v -0.2 0.1 0.2
v -0.1 0.1 0.2
v 0.1 0.1 0.2
v 0.2 0.1 0.2
v -0.2 0.1 0
v -0.1 0.1 0
v 0.1 0.1 0
v 0.2 0.1 0
v -0.4 0.4 0
v -0.3 0.4 0
v 0.3 0.4 0
v 0.4 0.4 0
v -0.4 0.4 -0.1
v -0.3 0.4 -0.1
v 0.3 0.4 -0.1
v 0.4 0.4 -0.1
v -0.4 0.7 0
v -0.3 0.7 0
v 0.3 0.7 0
v 0.4 0.7 0
v -0.4 0.7 -0.1
v -0.3 0.7 -0.1
v 0.3 0.7 -0.1
v 0.4 0.7 -0.1
v -0.3 1.1 0.2
v -0.2 1.1 0.2
v 0.2 1.1 0.2
v 0.3 1.1 0.2
v -0.4 1.1 0.1
v -0.3 1.1 0.1
v -0.2 1.1 0.1
v 0.2 1.1 0.1
v 0.3 1.1 0.1
v 0.4 1.1 0.1
v -0.4 1.1 -0.3
v -0.3 1.1 -0.3
v 0.3 1.1 -0.3
v 0.4 1.1 -0.3
v -0.3 1.1 -0.4
v 0.3 1.1 -0.4
v -0.2 1.2 0.2
v 0.2 1.2 0.2
v -0.3 1.2 0.1
v -0.2 1.2 0.1
v 0.2 1.2 0.1
v 0.3 1.2 0.1
v -0.2 1.2 0
v 0.2 1.2 0
v -0.2 1.2 -0.2
v 0.2 1.2 -0.2
v -0.3 1.2 -0.3
v 0.3 1.2 -0.3
v -0.2 1.3 0
v 0.2 1.3 0
v -0.2 1.3 -0.2
v 0.2 1.3 -0.2

# faces
f 3/1/1 2/1/1 1/1/1
f 4/1/1 2/1/1 3/1/1
f 7/6/1 6/6/1 5/6/1
f 8/6/1 6/6/1 7/6/1
f 11/4/1 10/4/1 9/4/1
f 13/4/1 11/4/1 9/4/1
f 13/4/1 12/4/1 11/4/1
f 14/4/1 12/4/1 13/4/1
f 17/1/1 16/1/1 15/1/1
f 18/1/1 16/1/1 17/1/1
f 22/4/1 19/4/1 18/4/1
f 23/4/1 19/4/1 22/4/1
f 25/4/1 21/4/1 20/4/1
f 25/4/1 24/4/1 23/4/1
f 25/4/1 23/4/1 22/4/1
f 25/4/1 22/4/1 21/4/1
f 26/4/1 24/4/1 25/4/1
f 29/4/1 24/4/1 26/4/1
f 30/4/1 24/4/1 29/4/1
f 32/4/1 28/4/1 27/4/1
f 33/4/1 28/4/1 32/4/1
f 34/4/1 31/4/1 30/4/1
f 35/4/1 31/4/1 34/4/1
f 36/4/1 34/4/1 33/4/1
f 37/4/1 34/4/1 36/4/1
f 40/3/1 39/3/1 38/3/1
f 41/3/1 39/3/1 40/3/1
f 42/3/1 39/3/1 41/3/1
f 43/2/1 42/2/1 41/2/1
f 44/2/1 42/2/1 43/2/1
f 46/1/1 44/1/1 43/1/1
f 47/1/1 44/1/1 46/1/1
f 49/5/1 46/5/1 45/5/1
f 50/6/1 47/6/1 46/6/1
f 50/5/1 46/5/1 49/5/1
f 50/6/1 48/6/1 47/6/1
f 51/6/1 48/6/1 50/6/1
f 52/6/1 48/6/1 51/6/1
f 53/5/1 52/5/1 51/5/1
f 54/5/1 52/5/1 53/5/1
f 55/6/1 50/6/1 49/6/1
f 56/6/1 50/6/1 55/6/1
f 57/6/1 54/6/1 53/6/1
f 58/6/1 54/6/1 57/6/1
f 60/4/1 56/4/1 55/4/1
f 61/4/1 56/4/1 60/4/1
f 62/4/1 59/4/1 58/4/1
f 63/4/1 59/4/1 62/4/1
f 66/4/1 65/4/1 64/4/1
f 67/4/1 65/4/1 66/4/1
f 70/4/1 69/4/1 68/4/1
f 71/4/1 69/4/1 70/4/1
f 74/4/1 73/4/1 72/4/1
f 75/4/1 73/4/1 74/4/1
f 78/4/1 77/4/1 76/4/1
f 79/4/1 77/4/1 78/4/1
f 82/4/1 81/4/1 80/4/1
f 83/4/1 81/4/1 82/4/1
f 86/3/1 85/3/1 84/3/1
f 87/3/1 85/3/1 86/3/1
f 88/3/1 85/3/1 87/3/1
f 89/2/1 88/2/1 87/2/1
f 90/2/1 88/2/1 89/2/1
f 91/1/1 90/1/1 89/1/1
f 92/1/1 90/1/1 91/1/1
f 95/4/1 94/4/1 93/4/1
f 96/4/1 94/4/1 95/4/1
f 99/1/1 98/1/1 97/1/1
f 100/1/1 98/1/1 99/1/1
f 101/1/2 102/1/2 103/1/2
f 103/1/2 102/1/2 104/1/2
f 105/4/2 106/4/2 107/4/2
f 107/4/2 106/4/2 108/4/2
f 109/3/2 110/3/2 111/3/2
f 111/3/2 110/3/2 112/3/2
f 112/3/2 110/3/2 113/3/2
f 112/2/2 113/2/2 114/2/2
f 114/2/2 113/2/2 115/2/2
f 114/1/2 115/1/2 116/1/2
f 116/1/2 115/1/2 117/1/2
f 118/4/2 119/4/2 120/4/2
f 120/4/2 119/4/2 121/4/2
f 122/4/2 123/4/2 124/4/2
f 124/4/2 123/4/2 125/4/2
f 126/3/2 127/3/2 128/3/2
f 128/3/2 127/3/2 129/3/2
f 129/3/2 127/3/2 130/3/2
f 129/2/2 130/2/2 131/2/2
f 131/2/2 130/2/2 132/2/2
f 131/1/2 132/1/2 134/1/2
f 134/1/2 132/1/2 135/1/2
f 134/6/2 135/6/2 137/6/2
f 135/6/2 136/6/2 137/6/2
f 133/6/2 134/6/2 137/6/2
f 137/6/2 136/6/2 138/6/2
f 138/6/2 136/6/2 139/6/2
f 138/5/2 139/5/2 140/5/2
f 140/5/2 139/5/2 141/5/2
f 133/6/2 137/6/2 142/6/2
f 142/6/2 137/6/2 143/6/2
f 140/6/2 141/6/2 144/6/2
f 144/6/2 141/6/2 145/6/2
f 142/4/2 143/4/2 147/4/2
f 147/4/2 143/4/2 148/4/2
f 145/4/2 146/4/2 149/4/2
f 149/4/2 146/4/2 150/4/2
f 151/4/2 152/4/2 153/4/2
f 153/4/2 152/4/2 154/4/2
f 155/4/2 156/4/2 157/4/2
f 157/4/2 156/4/2 158/4/2
f 159/4/2 160/4/2 161/4/2
f 161/4/2 160/4/2 162/4/2
f 163/1/2 164/1/2 165/1/2
f 165/1/2 164/1/2 166/1/2
f 166/4/2 167/4/2 170/4/2
f 170/4/2 167/4/2 171/4/2
f 168/4/2 169/4/2 173/4/2
f 171/4/2 172/4/2 173/4/2
f 170/4/2 171/4/2 173/4/2
f 169/4/2 170/4/2 173/4/2
f 173/4/2 172/4/2 174/4/2
f 174/4/2 172/4/2 177/4/2
f 177/4/2 172/4/2 178/4/2
f 175/4/2 176/4/2 180/4/2
f 180/4/2 176/4/2 181/4/2
f 178/4/2 179/4/2 182/4/2
f 182/4/2 179/4/2 183/4/2
f 181/4/2 182/4/2 184/4/2
f 184/4/2 182/4/2 185/4/2
f 186/1/2 187/1/2 188/1/2
f 188/1/2 187/1/2 189/1/2
f 190/6/2 191/6/2 192/6/2
f 192/6/2 191/6/2 193/6/2
f 194/4/2 195/4/2 196/4/2
f 194/4/2 196/4/2 198/4/2
f 196/4/2 197/4/2 198/4/2
f 198/4/2 197/4/2 199/4/2
f 204/4/3 201/4/3 200/4/3
f 205/4/3 201/4/3 204/4/3
f 206/4/3 201/4/3 205/4/3
f 208/3/3 203/3/3 202/3/3
f 209/3/3 203/3/3 208/3/3
f 211/4/3 207/4/3 206/4/3
f 211/4/3 206/4/3 205/4/3
f 212/4/3 211/4/3 210/4/3
f 213/4/3 207/4/3 211/4/3
f 213/4/3 211/4/3 212/4/3
f 216/3/3 215/3/3 214/3/3
f 217/3/3 215/3/3 216/3/3
f 219/4/3 207/4/3 213/4/3
f 220/4/3 207/4/3 219/4/3
f 221/4/3 207/4/3 220/4/3
f 222/4/3 219/4/3 218/4/3
f 222/4/3 220/4/3 219/4/3
f 223/4/3 220/4/3 222/4/3
f 227/4/3 225/4/3 224/4/3
f 228/4/3 225/4/3 227/4/3
f 229/4/3 225/4/3 228/4/3
f 234/4/3 227/4/3 226/4/3
f 234/4/3 228/4/3 227/4/3
f 235/4/3 228/4/3 234/4/3
f 236/4/3 228/4/3 235/4/3
f 238/4/3 230/4/3 229/4/3
f 239/4/3 230/4/3 238/4/3
f 240/5/3 232/5/3 231/5/3
f 241/6/3 233/6/3 232/6/3
f 241/5/3 232/5/3 240/5/3
f 242/6/3 233/6/3 241/6/3
f 243/4/3 234/4/3 233/4/3
f 243/6/3 233/6/3 242/6/3
f 244/1/3 235/1/3 234/1/3
f 244/4/3 234/4/3 243/4/3
f 245/7/3 236/7/3 235/7/3
f 245/1/3 235/1/3 244/1/3
f 246/4/3 237/4/3 236/4/3
f 246/7/3 236/7/3 245/7/3
f 247/4/3 237/4/3 246/4/3
f 248/6/3 242/6/3 241/6/3
f 248/6/3 241/6/3 240/6/3
f 249/5/3 243/5/3 242/5/3
f 249/6/3 242/6/3 248/6/3
f 250/6/3 244/6/3 243/6/3
f 250/5/3 243/5/3 249/5/3
f 251/1/3 245/1/3 244/1/3
f 251/1/3 246/1/3 245/1/3
f 253/6/3 248/6/3 240/6/3
f 253/5/3 249/5/3 248/5/3
f 254/6/3 250/6/3 249/6/3
f 254/5/3 249/5/3 253/5/3
f 255/6/3 244/6/3 250/6/3
f 255/6/3 250/6/3 254/6/3
f 256/1/3 251/1/3 244/1/3
f 256/6/3 244/6/3 255/6/3
f 257/1/3 251/1/3 256/1/3
f 258/4/3 252/4/3 251/4/3
f 258/1/3 251/1/3 257/1/3
f 259/6/3 254/6/3 253/6/3
f 259/6/3 255/6/3 254/6/3
f 259/6/3 253/6/3 240/6/3
f 260/4/3 256/4/3 255/4/3
f 260/6/3 255/6/3 259/6/3
f 261/1/3 257/1/3 256/1/3
f 261/4/3 256/4/3 260/4/3
f 262/7/3 258/7/3 257/7/3
f 262/1/3 257/1/3 261/1/3
f 263/4/3 252/4/3 258/4/3
f 263/7/3 258/7/3 262/7/3
f 264/4/3 252/4/3 263/4/3
f 267/4/3 262/4/3 261/4/3
f 267/4/3 263/4/3 262/4/3
f 268/4/3 263/4/3 267/4/3
f 269/4/3 263/4/3 268/4/3
f 270/4/3 266/4/3 265/4/3
f 271/4/3 266/4/3 270/4/3
f 272/4/3 269/4/3 268/4/3
f 272/4/3 270/4/3 269/4/3
f 273/4/3 270/4/3 272/4/3
f 278/1/3 275/1/3 274/1/3
f 279/1/3 275/1/3 278/1/3
f 280/6/3 277/6/3 276/6/3
f 281/6/3 277/6/3 280/6/3
f 285/1/3 280/1/3 279/1/3
f 286/6/3 281/6/3 280/6/3
f 286/1/3 280/1/3 285/1/3
f 287/6/3 281/6/3 286/6/3
f 290/2/3 283/2/3 282/2/3
f 291/1/3 284/1/3 283/1/3
f 291/2/3 283/2/3 290/2/3
f 292/1/3 284/1/3 291/1/3
f 296/2/3 294/2/3 293/2/3
f 297/1/3 295/1/3 294/1/3
f 297/2/3 294/2/3 296/2/3
f 298/1/3 295/1/3 297/1/3
f 302/4/3 289/4/3 288/4/3
f 303/4/3 289/4/3 302/4/3
f 305/1/3 300/1/3 299/1/3
f 306/6/3 301/6/3 300/6/3
f 306/1/3 300/1/3 305/1/3
f 307/6/3 301/6/3 306/6/3
f 308/1/3 305/1/3 304/1/3
f 309/1/3 305/1/3 308/1/3
f 310/6/3 307/6/3 306/6/3
f 311/6/3 307/6/3 310/6/3
f 312/1/4 313/1/4 316/1/4
f 316/1/4 313/1/4 317/1/4
f 314/6/4 315/6/4 318/6/4
f 318/6/4 315/6/4 319/6/4
f 317/1/4 318/1/4 324/1/4
f 324/1/4 318/1/4 325/1/4
f 325/1/4 318/1/4 326/1/4
f 320/3/4 321/3/4 327/3/4
f 321/2/4 322/2/4 328/2/4
f 327/3/4 321/3/4 328/3/4
f 322/1/4 323/1/4 329/1/4
f 328/2/4 322/2/4 329/2/4
f 329/1/4 323/1/4 330/1/4
f 331/3/4 332/3/4 335/3/4
f 332/2/4 333/2/4 336/2/4
f 335/3/4 332/3/4 336/3/4
f 333/1/4 334/1/4 337/1/4
f 336/2/4 333/2/4 337/2/4
f 337/1/4 334/1/4 338/1/4
f 340/1/4 341/1/4 343/1/4
f 339/1/4 340/1/4 343/1/4
f 343/1/4 341/1/4 344/1/4
f 342/1/4 343/1/4 346/1/4
f 346/1/4 343/1/4 347/1/4
f 344/6/4 345/6/4 348/6/4
f 348/6/4 345/6/4 349/6/4
f 350/4/4 351/4/4 354/4/4
f 354/4/4 351/4/4 355/4/4
f 352/4/4 353/4/4 359/4/4
f 359/4/4 353/4/4 360/4/4
f 356/6/4 357/6/4 363/6/4
f 357/5/4 358/5/4 364/5/4
f 363/6/4 357/6/4 364/6/4
f 358/6/4 359/6/4 365/6/4
f 364/5/4 358/5/4 365/5/4
f 363/5/4 364/5/4 366/5/4
f 364/6/4 365/6/4 367/6/4
f 366/5/4 364/5/4 367/5/4
f 365/6/4 359/6/4 368/6/4
f 367/6/4 365/6/4 368/6/4
f 368/6/4 359/6/4 369/6/4
f 366/6/4 367/6/4 370/6/4
f 367/6/4 368/6/4 370/6/4
f 368/5/4 369/5/4 371/5/4
f 370/6/4 368/6/4 371/6/4
f 371/5/4 369/5/4 372/5/4
f 366/6/4 370/6/4 373/6/4
f 370/5/4 371/5/4 374/5/4
f 373/6/4 370/6/4 374/6/4
f 371/6/4 372/6/4 375/6/4
f 374/5/4 371/5/4 375/5/4
f 375/6/4 372/6/4 376/6/4
f 361/4/4 362/4/4 378/4/4
f 378/4/4 362/4/4 379/4/4
f 376/4/4 377/4/4 380/4/4
f 380/4/4 377/4/4 381/4/4
f 382/4/4 383/4/4 384/4/4
f 384/4/4 383/4/4 385/4/4
f 386/4/4 387/4/4 389/4/4
f 389/4/4 387/4/4 390/4/4
f 388/4/4 389/4/4 393/4/4
f 393/4/4 389/4/4 394/4/4
f 394/4/4 389/4/4 395/4/4
f 392/4/4 393/4/4 396/4/4
f 393/4/4 394/4/4 396/4/4
f 396/4/4 394/4/4 397/4/4
f 392/4/4 396/4/4 398/4/4
f 392/4/4 398/4/4 400/4/4
f 398/4/4 399/4/4 400/4/4
f 400/4/4 399/4/4 401/4/4
f 401/4/4 399/4/4 402/4/4
f 401/4/4 402/4/4 404/4/4
f 402/4/4 403/4/4 404/4/4
f 404/4/4 403/4/4 405/4/4
f 390/4/4 391/4/4 406/4/4
f 406/4/4 391/4/4 407/4/4
f 405/4/4 406/4/4 408/4/4
f 408/4/4 406/4/4 409/4/4
f 410/4/4 411/4/4 413/4/4
f 412/4/4 413/4/4 415/4/4
f 414/4/4 415/4/4 416/4/4
f 415/4/4 413/4/4 417/4/4
f 416/4/4 415/4/4 417/4/4
f 417/4/4 413/4/4 418/4/4
f 413/4/4 411/4/4 419/4/4
f 418/4/4 413/4/4 419/4/4
f 419/4/4 411/4/4 420/4/4
f 420/4/4 411/4/4 421/4/4
f 426/3/5 423/3/5 422/3/5
f 427/3/5 423/3/5 426/3/5
f 428/3/5 425/3/5 424/3/5
f 429/3/5 425/3/5 428/3/5
f 435/5/5 431/5/5 430/5/5
f 436/6/5 432/6/5 431/6/5
f 436/5/5 431/5/5 435/5/5
f 437/6/5 432/6/5 436/6/5
f 438/6/5 432/6/5 437/6/5
f 441/1/5 434/1/5 433/1/5
f 442/1/5 434/1/5 441/1/5
f 444/6/5 437/6/5 436/6/5
f 445/6/5 437/6/5 444/6/5
f 446/6/5 437/6/5 445/6/5
f 448/1/5 440/1/5 439/1/5
f 449/1/5 440/1/5 448/1/5
f 450/6/5 444/6/5 443/6/5
f 451/5/5 445/5/5 444/5/5
f 451/6/5 444/6/5 450/6/5
f 452/6/5 447/6/5 446/6/5
f 452/5/5 445/5/5 451/5/5
f 452/6/5 446/6/5 445/6/5
f 453/6/5 447/6/5 452/6/5
f 458/1/5 455/1/5 454/1/5
f 459/1/5 455/1/5 458/1/5
f 460/1/5 457/1/5 456/1/5
f 461/1/5 457/1/5 460/1/5
f 466/6/5 463/6/5 462/6/5
f 467/6/5 463/6/5 466/6/5
f 470/6/5 465/6/5 464/6/5
f 471/6/5 465/6/5 470/6/5
f 472/4/5 468/4/5 467/4/5
f 473/4/5 468/4/5 472/4/5
f 476/4/5 470/4/5 469/4/5
f 477/4/5 470/4/5 476/4/5
f 478/4/5 475/4/5 474/4/5
f 478/4/5 476/4/5 475/4/5
f 478/4/5 474/4/5 473/4/5
f 479/4/5 476/4/5 478/4/5
f 484/4/5 481/4/5 480/4/5
f 485/4/5 481/4/5 484/4/5
f 486/4/5 483/4/5 482/4/5
f 487/4/5 483/4/5 486/4/5
f 492/4/5 489/4/5 488/4/5
f 493/4/5 489/4/5 492/4/5
f 496/4/5 491/4/5 490/4/5
f 497/4/5 491/4/5 496/4/5
f 498/4/5 495/4/5 494/4/5
f 499/4/5 495/4/5 498/4/5
f 504/4/5 501/4/5 500/4/5
f 505/4/5 501/4/5 504/4/5
f 506/4/5 503/4/5 502/4/5
f 507/4/5 503/4/5 506/4/5
f 512/4/5 509/4/5 508/4/5
f 513/4/5 509/4/5 512/4/5
f 514/4/5 511/4/5 510/4/5
f 515/4/5 511/4/5 514/4/5
f 522/4/5 517/4/5 516/4/5
f 523/4/5 517/4/5 522/4/5
f 524/4/5 519/4/5 518/4/5
f 525/4/5 519/4/5 524/4/5
f 526/4/5 521/4/5 520/4/5
f 527/4/5 521/4/5 526/4/5
f 532/4/5 529/4/5 528/4/5
f 533/4/5 529/4/5 532/4/5
f 536/4/5 531/4/5 530/4/5
f 537/4/5 531/4/5 536/4/5
f 538/4/5 534/4/5 533/4/5
f 539/4/5 534/4/5 538/4/5
f 540/4/5 536/4/5 535/4/5
f 541/4/5 536/4/5 540/4/5
f 546/4/5 543/4/5 542/4/5
f 547/4/5 543/4/5 546/4/5
f 548/4/5 545/4/5 544/4/5
f 549/4/5 545/4/5 548/4/5
f 550/3/6 551/3/6 554/3/6
f 554/3/6 551/3/6 555/3/6
f 552/3/6 553/3/6 556/3/6
f 556/3/6 553/3/6 557/3/6
f 558/1/6 559/1/6 562/1/6
f 562/1/6 559/1/6 563/1/6
f 560/1/6 561/1/6 564/1/6
f 564/1/6 561/1/6 565/1/6
f 566/6/6 567/6/6 570/6/6
f 570/6/6 567/6/6 571/6/6
f 568/6/6 569/6/6 572/6/6
f 572/6/6 569/6/6 573/6/6
f 574/4/6 575/4/6 579/4/6
f 579/4/6 575/4/6 580/4/6
f 576/4/6 577/4/6 581/4/6
f 581/4/6 577/4/6 582/4/6
f 578/4/6 579/4/6 584/4/6
f 584/4/6 579/4/6 585/4/6
f 582/4/6 583/4/6 586/4/6
f 586/4/6 583/4/6 587/4/6
f 585/4/6 586/4/6 588/4/6
f 588/4/6 586/4/6 589/4/6
f 590/4/6 591/4/6 593/4/6
f 593/4/6 591/4/6 594/4/6
f 592/4/6 593/4/6 596/4/6
f 594/4/6 595/4/6 596/4/6
f 593/4/6 594/4/6 596/4/6
f 596/4/6 595/4/6 597/4/6
f 592/4/6 596/4/6 598/4/6
f 597/4/6 595/4/6 599/4/6
f 592/4/6 598/4/6 600/4/6
f 598/4/6 599/4/6 600/4/6
f 599/4/6 595/4/6 601/4/6
f 600/4/6 599/4/6 601/4/6
f 602/4/6 603/4/6 604/4/6
f 604/4/6 603/4/6 605/4/6
