# MagicaVoxel @ Ephtracy

# group
o 

# material
mtllib new tree.mtl
usemtl palette

# normals
vn -1 0 0
vn 1 0 0
vn 0 0 1
vn 0 0 -1
vn 0 -1 0
vn 0 1 0

# texcoords
vt 0.537109 0.5
vt 0.896484 0.5
vt 0.900391 0.5

# verts
v -2 1.4 2
v -2 1.4 -2
v -2 1.8 2
v -2 1.8 -2
v -2 2.5 2
v -2 2.5 -2
v -2 2.9 2
v -2 2.9 -2
v -1.6 2.9 1.6
v -1.6 2.9 -1.6
v -1.6 3.3 1.6
v -1.6 3.3 -1.6
v -1.6 3.7 1.6
v -1.6 3.7 -1.6
v -1.6 4.1 1.6
v -1.6 4.1 -1.6
v -0.8 0 0.8
v -0.8 0 -0.8
v -0.8 1.4 0.8
v -0.8 1.4 -0.8
v -0.8 4.1 0.8
v -0.8 4.1 -0.8
v -0.8 4.5 0.8
v -0.8 4.5 -0.8
v -0.8 4.9 0.8
v -0.8 4.9 -0.8
v -0.4 4.9 0.4
v -0.4 4.9 -0.4
v -0.4 5.3 0.4
v -0.4 5.3 -0.4
v -0.4 5.7 0.4
v -0.4 5.7 -0.4
v 0.1 3.2 1.4
v 0.1 3.2 -1.5
v 0.1 3.3 1.4
v 0.1 3.3 -1.5
v 1.4 3 1.4
v 1.4 3 -1.5
v 1.4 3.2 1.4
v 1.4 3.2 -1.5
v -1.1 3 1.4
v -1.1 3 -1.5
v -1.1 3.3 1.4
v -1.1 3.3 -1.5
v 0.4 4.9 0.4
v 0.4 4.9 -0.4
v 0.4 5.3 0.4
v 0.4 5.3 -0.4
v 0.4 5.7 0.4
v 0.4 5.7 -0.4
v 0.8 0 0.8
v 0.8 0 -0.8
v 0.8 1.4 0.8
v 0.8 1.4 -0.8
v 0.8 4.1 0.8
v 0.8 4.1 -0.8
v 0.8 4.5 0.8
v 0.8 4.5 -0.8
v 0.8 4.9 0.8
v 0.8 4.9 -0.8
v 1.6 2.9 1.6
v 1.6 2.9 -1.6
v 1.6 3.3 1.6
v 1.6 3.3 -1.6
v 1.6 3.7 1.6
v 1.6 3.7 -1.6
v 1.6 4.1 1.6
v 1.6 4.1 -1.6
v 2 1.4 2
v 2 1.4 -2
v 2 1.8 2
v 2 1.8 -2
v 2 2.5 2
v 2 2.5 -2
v 2 2.9 2
v 2 2.9 -2
v -2 1.4 2
v -2 1.8 2
v -2 2.5 2
v -2 2.9 2
v 2 1.4 2
v 2 1.8 2
v 2 2.5 2
v 2 2.9 2
v -1.6 2.9 1.6
v -1.6 3.3 1.6
v -1.6 3.7 1.6
v -1.6 4.1 1.6
v 1.6 2.9 1.6
v 1.6 3.3 1.6
v 1.6 3.7 1.6
v 1.6 4.1 1.6
v -0.8 0 0.8
v -0.8 1.4 0.8
v -0.8 4.1 0.8
v -0.8 4.5 0.8
v -0.8 4.9 0.8
v 0.8 0 0.8
v 0.8 1.4 0.8
v 0.8 4.1 0.8
v 0.8 4.5 0.8
v 0.8 4.9 0.8
v -0.4 4.9 0.4
v -0.4 5.3 0.4
v -0.4 5.7 0.4
v 0.4 4.9 0.4
v 0.4 5.3 0.4
v 0.4 5.7 0.4
v -1.1 3 -1.5
v -1.1 3.3 -1.5
v 0.1 3.2 -1.5
v 0.1 3.3 -1.5
v 1.4 3 -1.5
v 1.4 3.2 -1.5
v -1.1 3 1.4
v -1.1 3.3 1.4
v 0.1 3.2 1.4
v 0.1 3.3 1.4
v 1.4 3 1.4
v 1.4 3.2 1.4
v -0.4 4.9 -0.4
v -0.4 5.3 -0.4
v -0.4 5.7 -0.4
v 0.4 4.9 -0.4
v 0.4 5.3 -0.4
v 0.4 5.7 -0.4
v -0.8 0 -0.8
v -0.8 1.4 -0.8
v -0.8 4.1 -0.8
v -0.8 4.5 -0.8
v -0.8 4.9 -0.8
v 0.8 0 -0.8
v 0.8 1.4 -0.8
v 0.8 4.1 -0.8
v 0.8 4.5 -0.8
v 0.8 4.9 -0.8
v -1.6 2.9 -1.6
v -1.6 3.3 -1.6
v -1.6 3.7 -1.6
v -1.6 4.1 -1.6
v 1.6 2.9 -1.6
v 1.6 3.3 -1.6
v 1.6 3.7 -1.6
v 1.6 4.1 -1.6
v -2 1.4 -2
v -2 1.8 -2
v -2 2.5 -2
v -2 2.9 -2
v 2 1.4 -2
v 2 1.8 -2
v 2 2.5 -2
v 2 2.9 -2
v -0.8 0 0.8
v 0.8 0 0.8
v -0.8 0 -0.8
v 0.8 0 -0.8
v -2 1.4 2
v 2 1.4 2
v -0.8 1.4 0.8
v 0.8 1.4 0.8
v -0.8 1.4 -0.8
v 0.8 1.4 -0.8
v -2 1.4 -2
v 2 1.4 -2
v 0.1 3.2 1.4
v 1.4 3.2 1.4
v 0.1 3.2 -1.5
v 1.4 3.2 -1.5
v -1.1 3.3 1.4
v 0.1 3.3 1.4
v -1.1 3.3 -1.5
v 0.1 3.3 -1.5
v -2 2.9 2
v 2 2.9 2
v -1.6 2.9 1.6
v 1.6 2.9 1.6
v -1.6 2.9 -1.6
v 1.6 2.9 -1.6
v -2 2.9 -2
v 2 2.9 -2
v -1.1 3 1.4
v 1.4 3 1.4
v -1.1 3 -1.5
v 1.4 3 -1.5
v -1.6 4.1 1.6
v 1.6 4.1 1.6
v -0.8 4.1 0.8
v 0.8 4.1 0.8
v -0.8 4.1 -0.8
v 0.8 4.1 -0.8
v -1.6 4.1 -1.6
v 1.6 4.1 -1.6
v -0.8 4.9 0.8
v 0.8 4.9 0.8
v -0.4 4.9 0.4
v 0.4 4.9 0.4
v -0.4 4.9 -0.4
v 0.4 4.9 -0.4
v -0.8 4.9 -0.8
v 0.8 4.9 -0.8
v -0.4 5.7 0.4
v 0.4 5.7 0.4
v -0.4 5.7 -0.4
v 0.4 5.7 -0.4

# faces
f 3/3/1 2/3/1 1/3/1
f 4/3/1 2/3/1 3/3/1
f 5/2/1 4/2/1 3/2/1
f 6/2/1 4/2/1 5/2/1
f 7/3/1 6/3/1 5/3/1
f 8/3/1 6/3/1 7/3/1
f 11/2/1 10/2/1 9/2/1
f 12/2/1 10/2/1 11/2/1
f 13/3/1 12/3/1 11/3/1
f 14/3/1 12/3/1 13/3/1
f 15/2/1 14/2/1 13/2/1
f 16/2/1 14/2/1 15/2/1
f 19/1/1 18/1/1 17/1/1
f 20/1/1 18/1/1 19/1/1
f 23/3/1 22/3/1 21/3/1
f 24/3/1 22/3/1 23/3/1
f 25/2/1 24/2/1 23/2/1
f 26/2/1 24/2/1 25/2/1
f 29/3/1 28/3/1 27/3/1
f 30/3/1 28/3/1 29/3/1
f 31/2/1 30/2/1 29/2/1
f 32/2/1 30/2/1 31/2/1
f 35/2/1 34/2/1 33/2/1
f 36/2/1 34/2/1 35/2/1
f 39/2/1 38/2/1 37/2/1
f 40/2/1 38/2/1 39/2/1
f 41/2/2 42/2/2 43/2/2
f 43/2/2 42/2/2 44/2/2
f 45/3/2 46/3/2 47/3/2
f 47/3/2 46/3/2 48/3/2
f 47/2/2 48/2/2 49/2/2
f 49/2/2 48/2/2 50/2/2
f 51/1/2 52/1/2 53/1/2
f 53/1/2 52/1/2 54/1/2
f 55/3/2 56/3/2 57/3/2
f 57/3/2 56/3/2 58/3/2
f 57/2/2 58/2/2 59/2/2
f 59/2/2 58/2/2 60/2/2
f 61/2/2 62/2/2 63/2/2
f 63/2/2 62/2/2 64/2/2
f 63/3/2 64/3/2 65/3/2
f 65/3/2 64/3/2 66/3/2
f 65/2/2 66/2/2 67/2/2
f 67/2/2 66/2/2 68/2/2
f 69/3/2 70/3/2 71/3/2
f 71/3/2 70/3/2 72/3/2
f 71/2/2 72/2/2 73/2/2
f 73/2/2 72/2/2 74/2/2
f 73/3/2 74/3/2 75/3/2
f 75/3/2 74/3/2 76/3/2
f 81/3/3 78/3/3 77/3/3
f 82/2/3 79/2/3 78/2/3
f 82/3/3 78/3/3 81/3/3
f 83/3/3 80/3/3 79/3/3
f 83/2/3 79/2/3 82/2/3
f 84/3/3 80/3/3 83/3/3
f 89/2/3 86/2/3 85/2/3
f 90/3/3 87/3/3 86/3/3
f 90/2/3 86/2/3 89/2/3
f 91/2/3 88/2/3 87/2/3
f 91/3/3 87/3/3 90/3/3
f 92/2/3 88/2/3 91/2/3
f 98/1/3 94/1/3 93/1/3
f 99/1/3 94/1/3 98/1/3
f 100/3/3 96/3/3 95/3/3
f 101/2/3 97/2/3 96/2/3
f 101/3/3 96/3/3 100/3/3
f 102/2/3 97/2/3 101/2/3
f 106/3/3 104/3/3 103/3/3
f 107/2/3 105/2/3 104/2/3
f 107/3/3 104/3/3 106/3/3
f 108/2/3 105/2/3 107/2/3
f 111/2/3 110/2/3 109/2/3
f 112/2/3 110/2/3 111/2/3
f 113/2/3 111/2/3 109/2/3
f 114/2/3 111/2/3 113/2/3
f 115/2/4 116/2/4 117/2/4
f 117/2/4 116/2/4 118/2/4
f 115/2/4 117/2/4 119/2/4
f 119/2/4 117/2/4 120/2/4
f 121/3/4 122/3/4 124/3/4
f 122/2/4 123/2/4 125/2/4
f 124/3/4 122/3/4 125/3/4
f 125/2/4 123/2/4 126/2/4
f 127/1/4 128/1/4 132/1/4
f 132/1/4 128/1/4 133/1/4
f 129/3/4 130/3/4 134/3/4
f 130/2/4 131/2/4 135/2/4
f 134/3/4 130/3/4 135/3/4
f 135/2/4 131/2/4 136/2/4
f 137/2/4 138/2/4 141/2/4
f 138/3/4 139/3/4 142/3/4
f 141/2/4 138/2/4 142/2/4
f 139/2/4 140/2/4 143/2/4
f 142/3/4 139/3/4 143/3/4
f 143/2/4 140/2/4 144/2/4
f 145/3/4 146/3/4 149/3/4
f 146/2/4 147/2/4 150/2/4
f 149/3/4 146/3/4 150/3/4
f 147/3/4 148/3/4 151/3/4
f 150/2/4 147/2/4 151/2/4
f 151/3/4 148/3/4 152/3/4
f 155/1/5 154/1/5 153/1/5
f 156/1/5 154/1/5 155/1/5
f 159/3/5 158/3/5 157/3/5
f 160/3/5 158/3/5 159/3/5
f 161/3/5 159/3/5 157/3/5
f 162/3/5 158/3/5 160/3/5
f 163/3/5 161/3/5 157/3/5
f 163/3/5 162/3/5 161/3/5
f 164/3/5 158/3/5 162/3/5
f 164/3/5 162/3/5 163/3/5
f 167/2/5 166/2/5 165/2/5
f 168/2/5 166/2/5 167/2/5
f 171/3/5 170/3/5 169/3/5
f 172/3/5 170/3/5 171/3/5
f 173/3/6 174/3/6 175/3/6
f 175/3/6 174/3/6 176/3/6
f 173/3/6 175/3/6 177/3/6
f 176/3/6 174/3/6 178/3/6
f 173/3/6 177/3/6 179/3/6
f 177/3/6 178/3/6 179/3/6
f 178/3/6 174/3/6 180/3/6
f 179/3/6 178/3/6 180/3/6
f 181/2/6 182/2/6 183/2/6
f 183/2/6 182/2/6 184/2/6
f 185/2/6 186/2/6 187/2/6
f 187/2/6 186/2/6 188/2/6
f 185/2/6 187/2/6 189/2/6
f 188/2/6 186/2/6 190/2/6
f 185/2/6 189/2/6 191/2/6
f 189/2/6 190/2/6 191/2/6
f 190/2/6 186/2/6 192/2/6
f 191/2/6 190/2/6 192/2/6
f 193/2/6 194/2/6 195/2/6
f 195/2/6 194/2/6 196/2/6
f 193/2/6 195/2/6 197/2/6
f 196/2/6 194/2/6 198/2/6
f 193/2/6 197/2/6 199/2/6
f 197/2/6 198/2/6 199/2/6
f 198/2/6 194/2/6 200/2/6
f 199/2/6 198/2/6 200/2/6
f 201/2/6 202/2/6 203/2/6
f 203/2/6 202/2/6 204/2/6
