# MagicaVoxel @ Ephtracy

# group
o 

# material
mtllib new_main_mc_feet.mtl
usemtl palette

# normals
vn -1 0 0
vn 1 0 0
vn 0 0 1
vn 0 0 -1
vn 0 -1 0
vn 0 1 0

# texcoords
vt 0.0332031 0.5
vt 0.904297 0.5

# verts
v -0.4 0 0.8
v -0.4 0 0.2
v -0.4 0 -0.2
v -0.4 0 -0.8
v -0.4 0.1 0.8
v -0.4 0.1 0.2
v -0.4 0.1 -0.2
v -0.4 0.1 -0.8
v -0.3 0.1 0.7
v -0.3 0.1 0.3
v -0.3 0.1 -0.3
v -0.3 0.1 -0.7
v -0.3 0.4 0.7
v -0.3 0.4 0.3
v -0.3 0.4 -0.3
v -0.3 0.4 -0.7
v 0.8 0.1 0.8
v 0.8 0.1 0.7
v 0.8 0.1 0.3
v 0.8 0.1 0.2
v 0.8 0.1 -0.2
v 0.8 0.1 -0.3
v 0.8 0.1 -0.7
v 0.8 0.1 -0.8
v 0.8 0.3 0.8
v 0.8 0.3 0.7
v 0.8 0.3 0.3
v 0.8 0.3 0.2
v 0.8 0.3 -0.2
v 0.8 0.3 -0.3
v 0.8 0.3 -0.7
v 0.8 0.3 -0.8
v 0.9 0.3 0.7
v 0.9 0.3 0.6
v 0.9 0.3 0.3
v 0.9 0.3 0.2
v 0.9 0.3 -0.2
v 0.9 0.3 -0.3
v 0.9 0.3 -0.6
v 0.9 0.3 -0.7
v 0.9 0.4 0.7
v 0.9 0.4 0.6
v 0.9 0.4 0.3
v 0.9 0.4 0.2
v 0.9 0.4 -0.2
v 0.9 0.4 -0.3
v 0.9 0.4 -0.6
v 0.9 0.4 -0.7
v 1 0.3 0.6
v 1 0.3 0.5
v 1 0.3 0.4
v 1 0.3 0.3
v 1 0.3 -0.3
v 1 0.3 -0.4
v 1 0.3 -0.5
v 1 0.3 -0.6
v 1 0.4 0.6
v 1 0.4 0.5
v 1 0.4 0.4
v 1 0.4 0.3
v 1 0.4 -0.3
v 1 0.4 -0.4
v 1 0.4 -0.5
v 1 0.4 -0.6
v 1.1 0.3 0.5
v 1.1 0.3 0.4
v 1.1 0.3 -0.4
v 1.1 0.3 -0.5
v 1.1 0.4 0.5
v 1.1 0.4 0.4
v 1.1 0.4 -0.4
v 1.1 0.4 -0.5
v 0.4 0.3 0.7
v 0.4 0.3 0.3
v 0.4 0.3 -0.3
v 0.4 0.3 -0.7
v 0.4 0.4 0.7
v 0.4 0.4 0.3
v 0.4 0.4 -0.3
v 0.4 0.4 -0.7
v 0.9 0.1 0.8
v 0.9 0.1 0.7
v 0.9 0.1 0.3
v 0.9 0.1 0.2
v 0.9 0.1 -0.2
v 0.9 0.1 -0.3
v 0.9 0.1 -0.7
v 0.9 0.1 -0.8
v 0.9 0.3 0.8
v 0.9 0.3 0.7
v 0.9 0.3 0.3
v 0.9 0.3 0.2
v 0.9 0.3 -0.2
v 0.9 0.3 -0.3
v 0.9 0.3 -0.7
v 0.9 0.3 -0.8
v 1 0.3 0.7
v 1 0.3 0.6
v 1 0.3 0.3
v 1 0.3 0.2
v 1 0.3 -0.2
v 1 0.3 -0.3
v 1 0.3 -0.6
v 1 0.3 -0.7
v 1 0.4 0.7
v 1 0.4 0.6
v 1 0.4 0.3
v 1 0.4 0.2
v 1 0.4 -0.2
v 1 0.4 -0.3
v 1 0.4 -0.6
v 1 0.4 -0.7
v 1.1 0.3 0.6
v 1.1 0.3 0.5
v 1.1 0.3 0.4
v 1.1 0.3 0.3
v 1.1 0.3 -0.3
v 1.1 0.3 -0.4
v 1.1 0.3 -0.5
v 1.1 0.3 -0.6
v 1.1 0.4 0.6
v 1.1 0.4 0.5
v 1.1 0.4 0.4
v 1.1 0.4 0.3
v 1.1 0.4 -0.3
v 1.1 0.4 -0.4
v 1.1 0.4 -0.5
v 1.1 0.4 -0.6
v 1.2 0.1 0.7
v 1.2 0.1 0.5
v 1.2 0.1 0.4
v 1.2 0.1 0.3
v 1.2 0.1 -0.3
v 1.2 0.1 -0.4
v 1.2 0.1 -0.5
v 1.2 0.1 -0.7
v 1.2 0.3 0.7
v 1.2 0.3 0.5
v 1.2 0.3 0.4
v 1.2 0.3 0.3
v 1.2 0.3 -0.3
v 1.2 0.3 -0.4
v 1.2 0.3 -0.5
v 1.2 0.3 -0.7
v 1.2 0.4 0.5
v 1.2 0.4 0.4
v 1.2 0.4 -0.4
v 1.2 0.4 -0.5
v 1.3 0 0.8
v 1.3 0 0.2
v 1.3 0 -0.2
v 1.3 0 -0.8
v 1.3 0.1 0.8
v 1.3 0.1 0.5
v 1.3 0.1 0.4
v 1.3 0.1 0.2
v 1.3 0.1 -0.2
v 1.3 0.1 -0.4
v 1.3 0.1 -0.5
v 1.3 0.1 -0.8
v 1.3 0.3 0.5
v 1.3 0.3 0.4
v 1.3 0.3 -0.4
v 1.3 0.3 -0.5
v -0.4 0 0.8
v -0.4 0.1 0.8
v 0.8 0.1 0.8
v 0.8 0.3 0.8
v 0.9 0.1 0.8
v 0.9 0.3 0.8
v 1.3 0 0.8
v 1.3 0.1 0.8
v -0.3 0.1 0.7
v -0.3 0.4 0.7
v 0.4 0.3 0.7
v 0.4 0.4 0.7
v 0.8 0.1 0.7
v 0.8 0.3 0.7
v 0.9 0.1 0.7
v 0.9 0.3 0.7
v 0.9 0.4 0.7
v 1 0.3 0.7
v 1 0.4 0.7
v 1.2 0.1 0.7
v 1.2 0.3 0.7
v 1 0.3 0.6
v 1 0.4 0.6
v 1.1 0.3 0.6
v 1.1 0.4 0.6
v 1.1 0.3 0.5
v 1.1 0.4 0.5
v 1.2 0.1 0.5
v 1.2 0.3 0.5
v 1.2 0.4 0.5
v 1.3 0.1 0.5
v 1.3 0.3 0.5
v 1 0.3 0.4
v 1 0.4 0.4
v 1.1 0.3 0.4
v 1.1 0.4 0.4
v 0.9 0.3 0.3
v 0.9 0.4 0.3
v 1 0.3 0.3
v 1 0.4 0.3
v -0.4 0 -0.2
v -0.4 0.1 -0.2
v 0.8 0.1 -0.2
v 0.8 0.3 -0.2
v 0.9 0.1 -0.2
v 0.9 0.3 -0.2
v 0.9 0.4 -0.2
v 1 0.3 -0.2
v 1 0.4 -0.2
v 1.3 0 -0.2
v 1.3 0.1 -0.2
v -0.3 0.1 -0.3
v -0.3 0.4 -0.3
v 0.4 0.3 -0.3
v 0.4 0.4 -0.3
v 0.8 0.1 -0.3
v 0.8 0.3 -0.3
v 0.9 0.1 -0.3
v 0.9 0.3 -0.3
v 1 0.3 -0.3
v 1 0.4 -0.3
v 1.1 0.3 -0.3
v 1.1 0.4 -0.3
v 1.2 0.1 -0.3
v 1.2 0.3 -0.3
v 1.1 0.3 -0.4
v 1.1 0.4 -0.4
v 1.2 0.1 -0.4
v 1.2 0.3 -0.4
v 1.2 0.4 -0.4
v 1.3 0.1 -0.4
v 1.3 0.3 -0.4
v 1 0.3 -0.5
v 1 0.4 -0.5
v 1.1 0.3 -0.5
v 1.1 0.4 -0.5
v 0.9 0.3 -0.6
v 0.9 0.4 -0.6
v 1 0.3 -0.6
v 1 0.4 -0.6
v 0.9 0.3 0.6
v 0.9 0.4 0.6
v 1 0.3 0.6
v 1 0.4 0.6
v 1 0.3 0.5
v 1 0.4 0.5
v 1.1 0.3 0.5
v 1.1 0.4 0.5
v 1.1 0.3 0.4
v 1.1 0.4 0.4
v 1.2 0.1 0.4
v 1.2 0.3 0.4
v 1.2 0.4 0.4
v 1.3 0.1 0.4
v 1.3 0.3 0.4
v -0.3 0.1 0.3
v -0.3 0.4 0.3
v 0.4 0.3 0.3
v 0.4 0.4 0.3
v 0.8 0.1 0.3
v 0.8 0.3 0.3
v 0.9 0.1 0.3
v 0.9 0.3 0.3
v 1 0.3 0.3
v 1 0.4 0.3
v 1.1 0.3 0.3
v 1.1 0.4 0.3
v 1.2 0.1 0.3
v 1.2 0.3 0.3
v -0.4 0 0.2
v -0.4 0.1 0.2
v 0.8 0.1 0.2
v 0.8 0.3 0.2
v 0.9 0.1 0.2
v 0.9 0.3 0.2
v 0.9 0.4 0.2
v 1 0.3 0.2
v 1 0.4 0.2
v 1.3 0 0.2
v 1.3 0.1 0.2
v 0.9 0.3 -0.3
v 0.9 0.4 -0.3
v 1 0.3 -0.3
v 1 0.4 -0.3
v 1 0.3 -0.4
v 1 0.4 -0.4
v 1.1 0.3 -0.4
v 1.1 0.4 -0.4
v 1.1 0.3 -0.5
v 1.1 0.4 -0.5
v 1.2 0.1 -0.5
v 1.2 0.3 -0.5
v 1.2 0.4 -0.5
v 1.3 0.1 -0.5
v 1.3 0.3 -0.5
v 1 0.3 -0.6
v 1 0.4 -0.6
v 1.1 0.3 -0.6
v 1.1 0.4 -0.6
v -0.3 0.1 -0.7
v -0.3 0.4 -0.7
v 0.4 0.3 -0.7
v 0.4 0.4 -0.7
v 0.8 0.1 -0.7
v 0.8 0.3 -0.7
v 0.9 0.1 -0.7
v 0.9 0.3 -0.7
v 0.9 0.4 -0.7
v 1 0.3 -0.7
v 1 0.4 -0.7
v 1.2 0.1 -0.7
v 1.2 0.3 -0.7
v -0.4 0 -0.8
v -0.4 0.1 -0.8
v 0.8 0.1 -0.8
v 0.8 0.3 -0.8
v 0.9 0.1 -0.8
v 0.9 0.3 -0.8
v 1.3 0 -0.8
v 1.3 0.1 -0.8
v -0.4 0 0.8
v 1.3 0 0.8
v -0.3 0 0.7
v 1.2 0 0.7
v -0.3 0 0.3
v 1.2 0 0.3
v -0.4 0 0.2
v 1.3 0 0.2
v -0.4 0 -0.2
v 1.3 0 -0.2
v -0.3 0 -0.3
v 1.2 0 -0.3
v -0.3 0 -0.7
v 1.2 0 -0.7
v -0.4 0 -0.8
v 1.3 0 -0.8
v 0.9 0.3 0.3
v 1 0.3 0.3
v 0.9 0.3 0.2
v 1 0.3 0.2
v 0.9 0.3 -0.2
v 1 0.3 -0.2
v 0.9 0.3 -0.3
v 1 0.3 -0.3
v -0.4 0.1 0.8
v 0.8 0.1 0.8
v 0.9 0.1 0.8
v 1.3 0.1 0.8
v -0.3 0.1 0.7
v 0.8 0.1 0.7
v 0.9 0.1 0.7
v 1.2 0.1 0.7
v 1.2 0.1 0.5
v 1.3 0.1 0.5
v 1.2 0.1 0.4
v 1.3 0.1 0.4
v -0.3 0.1 0.3
v 0.8 0.1 0.3
v 0.9 0.1 0.3
v 1.2 0.1 0.3
v -0.4 0.1 0.2
v 0.8 0.1 0.2
v 0.9 0.1 0.2
v 1.3 0.1 0.2
v -0.4 0.1 -0.2
v 0.8 0.1 -0.2
v 0.9 0.1 -0.2
v 1.3 0.1 -0.2
v -0.3 0.1 -0.3
v 0.8 0.1 -0.3
v 0.9 0.1 -0.3
v 1.2 0.1 -0.3
v 1.2 0.1 -0.4
v 1.3 0.1 -0.4
v 1.2 0.1 -0.5
v 1.3 0.1 -0.5
v -0.3 0.1 -0.7
v 0.8 0.1 -0.7
v 0.9 0.1 -0.7
v 1.2 0.1 -0.7
v -0.4 0.1 -0.8
v 0.8 0.1 -0.8
v 0.9 0.1 -0.8
v 1.3 0.1 -0.8
v 0.8 0.3 0.8
v 0.9 0.3 0.8
v 0.4 0.3 0.7
v 0.8 0.3 0.7
v 0.9 0.3 0.7
v 1 0.3 0.7
v 1.2 0.3 0.7
v 0.9 0.3 0.6
v 1 0.3 0.6
v 1.1 0.3 0.6
v 1 0.3 0.5
v 1.1 0.3 0.5
v 1.2 0.3 0.5
v 1.3 0.3 0.5
v 1 0.3 0.4
v 1.1 0.3 0.4
v 1.2 0.3 0.4
v 1.3 0.3 0.4
v 0.4 0.3 0.3
v 0.8 0.3 0.3
v 0.9 0.3 0.3
v 1 0.3 0.3
v 1.1 0.3 0.3
v 1.2 0.3 0.3
v 0.8 0.3 0.2
v 0.9 0.3 0.2
v 0.8 0.3 -0.2
v 0.9 0.3 -0.2
v 0.4 0.3 -0.3
v 0.8 0.3 -0.3
v 0.9 0.3 -0.3
v 1 0.3 -0.3
v 1.1 0.3 -0.3
v 1.2 0.3 -0.3
v 1 0.3 -0.4
v 1.1 0.3 -0.4
v 1.2 0.3 -0.4
v 1.3 0.3 -0.4
v 1 0.3 -0.5
v 1.1 0.3 -0.5
v 1.2 0.3 -0.5
v 1.3 0.3 -0.5
v 0.9 0.3 -0.6
v 1 0.3 -0.6
v 1.1 0.3 -0.6
v 0.4 0.3 -0.7
v 0.8 0.3 -0.7
v 0.9 0.3 -0.7
v 1 0.3 -0.7
v 1.2 0.3 -0.7
v 0.8 0.3 -0.8
v 0.9 0.3 -0.8
v -0.3 0.4 0.7
v 0.4 0.4 0.7
v 0.9 0.4 0.7
v 1 0.4 0.7
v 0.9 0.4 0.6
v 1 0.4 0.6
v 1.1 0.4 0.6
v 1 0.4 0.5
v 1.1 0.4 0.5
v 1.2 0.4 0.5
v 1 0.4 0.4
v 1.1 0.4 0.4
v 1.2 0.4 0.4
v -0.3 0.4 0.3
v 0.4 0.4 0.3
v 0.9 0.4 0.3
v 1 0.4 0.3
v 1.1 0.4 0.3
v 0.9 0.4 0.2
v 1 0.4 0.2
v 0.9 0.4 -0.2
v 1 0.4 -0.2
v -0.3 0.4 -0.3
v 0.4 0.4 -0.3
v 0.9 0.4 -0.3
v 1 0.4 -0.3
v 1.1 0.4 -0.3
v 1 0.4 -0.4
v 1.1 0.4 -0.4
v 1.2 0.4 -0.4
v 1 0.4 -0.5
v 1.1 0.4 -0.5
v 1.2 0.4 -0.5
v 0.9 0.4 -0.6
v 1 0.4 -0.6
v 1.1 0.4 -0.6
v -0.3 0.4 -0.7
v 0.4 0.4 -0.7
v 0.9 0.4 -0.7
v 1 0.4 -0.7

# faces
f 5/2/1 2/2/1 1/2/1
f 6/2/1 2/2/1 5/2/1
f 7/2/1 4/2/1 3/2/1
f 8/2/1 4/2/1 7/2/1
f 13/1/1 10/1/1 9/1/1
f 14/1/1 10/1/1 13/1/1
f 15/1/1 12/1/1 11/1/1
f 16/1/1 12/1/1 15/1/1
f 25/2/1 18/2/1 17/2/1
f 26/2/1 18/2/1 25/2/1
f 27/2/1 20/2/1 19/2/1
f 28/2/1 20/2/1 27/2/1
f 29/2/1 22/2/1 21/2/1
f 30/2/1 22/2/1 29/2/1
f 31/2/1 24/2/1 23/2/1
f 32/2/1 24/2/1 31/2/1
f 41/2/1 34/2/1 33/2/1
f 42/2/1 34/2/1 41/2/1
f 43/2/1 36/2/1 35/2/1
f 44/2/1 36/2/1 43/2/1
f 45/2/1 38/2/1 37/2/1
f 46/2/1 38/2/1 45/2/1
f 47/2/1 40/2/1 39/2/1
f 48/2/1 40/2/1 47/2/1
f 57/2/1 50/2/1 49/2/1
f 58/2/1 50/2/1 57/2/1
f 59/2/1 52/2/1 51/2/1
f 60/2/1 52/2/1 59/2/1
f 61/2/1 54/2/1 53/2/1
f 62/2/1 54/2/1 61/2/1
f 63/2/1 56/2/1 55/2/1
f 64/2/1 56/2/1 63/2/1
f 69/2/1 66/2/1 65/2/1
f 70/2/1 66/2/1 69/2/1
f 71/2/1 68/2/1 67/2/1
f 72/2/1 68/2/1 71/2/1
f 73/1/2 74/1/2 77/1/2
f 77/1/2 74/1/2 78/1/2
f 75/1/2 76/1/2 79/1/2
f 79/1/2 76/1/2 80/1/2
f 81/2/2 82/2/2 89/2/2
f 89/2/2 82/2/2 90/2/2
f 83/2/2 84/2/2 91/2/2
f 91/2/2 84/2/2 92/2/2
f 85/2/2 86/2/2 93/2/2
f 93/2/2 86/2/2 94/2/2
f 87/2/2 88/2/2 95/2/2
f 95/2/2 88/2/2 96/2/2
f 97/2/2 98/2/2 105/2/2
f 105/2/2 98/2/2 106/2/2
f 99/2/2 100/2/2 107/2/2
f 107/2/2 100/2/2 108/2/2
f 101/2/2 102/2/2 109/2/2
f 109/2/2 102/2/2 110/2/2
f 103/2/2 104/2/2 111/2/2
f 111/2/2 104/2/2 112/2/2
f 113/2/2 114/2/2 121/2/2
f 121/2/2 114/2/2 122/2/2
f 115/2/2 116/2/2 123/2/2
f 123/2/2 116/2/2 124/2/2
f 117/2/2 118/2/2 125/2/2
f 125/2/2 118/2/2 126/2/2
f 119/2/2 120/2/2 127/2/2
f 127/2/2 120/2/2 128/2/2
f 129/1/2 130/1/2 137/1/2
f 137/1/2 130/1/2 138/1/2
f 131/1/2 132/1/2 139/1/2
f 139/1/2 132/1/2 140/1/2
f 133/1/2 134/1/2 141/1/2
f 141/1/2 134/1/2 142/1/2
f 135/1/2 136/1/2 143/1/2
f 143/1/2 136/1/2 144/1/2
f 138/2/2 139/2/2 145/2/2
f 145/2/2 139/2/2 146/2/2
f 142/2/2 143/2/2 147/2/2
f 147/2/2 143/2/2 148/2/2
f 149/2/2 150/2/2 153/2/2
f 153/2/2 150/2/2 154/2/2
f 154/2/2 150/2/2 155/2/2
f 155/2/2 150/2/2 156/2/2
f 151/2/2 152/2/2 157/2/2
f 157/2/2 152/2/2 158/2/2
f 158/2/2 152/2/2 159/2/2
f 159/2/2 152/2/2 160/2/2
f 154/2/2 155/2/2 161/2/2
f 161/2/2 155/2/2 162/2/2
f 158/2/2 159/2/2 163/2/2
f 163/2/2 159/2/2 164/2/2
f 167/2/3 166/2/3 165/2/3
f 169/2/3 167/2/3 165/2/3
f 169/2/3 168/2/3 167/2/3
f 170/2/3 168/2/3 169/2/3
f 171/2/3 169/2/3 165/2/3
f 172/2/3 169/2/3 171/2/3
f 175/1/3 174/1/3 173/1/3
f 176/1/3 174/1/3 175/1/3
f 177/1/3 175/1/3 173/1/3
f 178/1/3 175/1/3 177/1/3
f 182/1/3 180/1/3 179/1/3
f 182/2/3 181/2/3 180/2/3
f 183/2/3 181/2/3 182/2/3
f 184/1/3 182/1/3 179/1/3
f 185/1/3 182/1/3 184/1/3
f 188/2/3 187/2/3 186/2/3
f 189/2/3 187/2/3 188/2/3
f 193/2/3 191/2/3 190/2/3
f 194/2/3 191/2/3 193/2/3
f 195/2/3 193/2/3 192/2/3
f 196/2/3 193/2/3 195/2/3
f 199/2/3 198/2/3 197/2/3
f 200/2/3 198/2/3 199/2/3
f 203/2/3 202/2/3 201/2/3
f 204/2/3 202/2/3 203/2/3
f 207/2/3 206/2/3 205/2/3
f 209/2/3 207/2/3 205/2/3
f 209/2/3 208/2/3 207/2/3
f 210/2/3 208/2/3 209/2/3
f 212/2/3 211/2/3 210/2/3
f 213/2/3 211/2/3 212/2/3
f 214/2/3 209/2/3 205/2/3
f 215/2/3 209/2/3 214/2/3
f 218/1/3 217/1/3 216/1/3
f 219/1/3 217/1/3 218/1/3
f 220/1/3 218/1/3 216/1/3
f 221/1/3 218/1/3 220/1/3
f 224/1/3 223/1/3 222/1/3
f 226/1/3 224/1/3 222/1/3
f 226/2/3 225/2/3 224/2/3
f 227/2/3 225/2/3 226/2/3
f 228/1/3 226/1/3 222/1/3
f 229/1/3 226/1/3 228/1/3
f 233/2/3 231/2/3 230/2/3
f 234/2/3 231/2/3 233/2/3
f 235/2/3 233/2/3 232/2/3
f 236/2/3 233/2/3 235/2/3
f 239/2/3 238/2/3 237/2/3
f 240/2/3 238/2/3 239/2/3
f 243/2/3 242/2/3 241/2/3
f 244/2/3 242/2/3 243/2/3
f 245/2/4 246/2/4 247/2/4
f 247/2/4 246/2/4 248/2/4
f 249/2/4 250/2/4 251/2/4
f 251/2/4 250/2/4 252/2/4
f 253/2/4 254/2/4 256/2/4
f 256/2/4 254/2/4 257/2/4
f 255/2/4 256/2/4 258/2/4
f 258/2/4 256/2/4 259/2/4
f 260/1/4 261/1/4 262/1/4
f 262/1/4 261/1/4 263/1/4
f 260/1/4 262/1/4 264/1/4
f 264/1/4 262/1/4 265/1/4
f 266/1/4 267/1/4 268/1/4
f 266/1/4 268/1/4 270/1/4
f 268/2/4 269/2/4 270/2/4
f 270/2/4 269/2/4 271/2/4
f 266/1/4 270/1/4 272/1/4
f 272/1/4 270/1/4 273/1/4
f 274/2/4 275/2/4 276/2/4
f 274/2/4 276/2/4 278/2/4
f 276/2/4 277/2/4 278/2/4
f 278/2/4 277/2/4 279/2/4
f 279/2/4 280/2/4 281/2/4
f 281/2/4 280/2/4 282/2/4
f 274/2/4 278/2/4 283/2/4
f 283/2/4 278/2/4 284/2/4
f 285/2/4 286/2/4 287/2/4
f 287/2/4 286/2/4 288/2/4
f 289/2/4 290/2/4 291/2/4
f 291/2/4 290/2/4 292/2/4
f 293/2/4 294/2/4 296/2/4
f 296/2/4 294/2/4 297/2/4
f 295/2/4 296/2/4 298/2/4
f 298/2/4 296/2/4 299/2/4
f 300/2/4 301/2/4 302/2/4
f 302/2/4 301/2/4 303/2/4
f 304/1/4 305/1/4 306/1/4
f 306/1/4 305/1/4 307/1/4
f 304/1/4 306/1/4 308/1/4
f 308/1/4 306/1/4 309/1/4
f 310/1/4 311/1/4 313/1/4
f 311/2/4 312/2/4 313/2/4
f 313/2/4 312/2/4 314/2/4
f 310/1/4 313/1/4 315/1/4
f 315/1/4 313/1/4 316/1/4
f 317/2/4 318/2/4 319/2/4
f 317/2/4 319/2/4 321/2/4
f 319/2/4 320/2/4 321/2/4
f 321/2/4 320/2/4 322/2/4
f 317/2/4 321/2/4 323/2/4
f 323/2/4 321/2/4 324/2/4
f 327/2/5 326/2/5 325/2/5
f 328/2/5 326/2/5 327/2/5
f 329/2/5 327/2/5 325/2/5
f 329/1/5 328/1/5 327/1/5
f 330/2/5 326/2/5 328/2/5
f 330/1/5 328/1/5 329/1/5
f 331/2/5 329/2/5 325/2/5
f 331/2/5 330/2/5 329/2/5
f 332/2/5 326/2/5 330/2/5
f 332/2/5 330/2/5 331/2/5
f 335/2/5 334/2/5 333/2/5
f 336/2/5 334/2/5 335/2/5
f 337/2/5 335/2/5 333/2/5
f 337/1/5 336/1/5 335/1/5
f 338/2/5 334/2/5 336/2/5
f 338/1/5 336/1/5 337/1/5
f 339/2/5 337/2/5 333/2/5
f 339/2/5 338/2/5 337/2/5
f 340/2/5 334/2/5 338/2/5
f 340/2/5 338/2/5 339/2/5
f 343/2/5 342/2/5 341/2/5
f 344/2/5 342/2/5 343/2/5
f 347/2/5 346/2/5 345/2/5
f 348/2/5 346/2/5 347/2/5
f 349/2/6 350/2/6 353/2/6
f 353/2/6 350/2/6 354/2/6
f 351/2/6 352/2/6 355/2/6
f 355/2/6 352/2/6 356/2/6
f 356/2/6 352/2/6 357/2/6
f 357/2/6 352/2/6 358/2/6
f 349/2/6 353/2/6 361/2/6
f 359/2/6 360/2/6 364/2/6
f 361/2/6 362/2/6 365/2/6
f 349/2/6 361/2/6 365/2/6
f 365/2/6 362/2/6 366/2/6
f 363/2/6 364/2/6 367/2/6
f 364/2/6 360/2/6 368/2/6
f 367/2/6 364/2/6 368/2/6
f 369/2/6 370/2/6 373/2/6
f 373/2/6 370/2/6 374/2/6
f 371/2/6 372/2/6 375/2/6
f 375/2/6 372/2/6 376/2/6
f 376/2/6 372/2/6 377/2/6
f 377/2/6 372/2/6 378/2/6
f 369/2/6 373/2/6 381/2/6
f 379/2/6 380/2/6 384/2/6
f 381/2/6 382/2/6 385/2/6
f 369/2/6 381/2/6 385/2/6
f 385/2/6 382/2/6 386/2/6
f 383/2/6 384/2/6 387/2/6
f 384/2/6 380/2/6 388/2/6
f 387/2/6 384/2/6 388/2/6
f 389/2/6 390/2/6 392/2/6
f 392/2/6 390/2/6 393/2/6
f 391/1/6 392/1/6 396/1/6
f 392/1/6 393/1/6 396/1/6
f 394/1/6 395/1/6 397/1/6
f 397/1/6 395/1/6 398/1/6
f 396/1/6 397/1/6 399/1/6
f 398/1/6 395/1/6 400/1/6
f 400/1/6 395/1/6 401/1/6
f 396/1/6 399/1/6 403/1/6
f 399/1/6 400/1/6 403/1/6
f 403/1/6 400/1/6 404/1/6
f 401/2/6 402/2/6 405/2/6
f 405/2/6 402/2/6 406/2/6
f 391/1/6 396/1/6 407/1/6
f 396/1/6 403/1/6 407/1/6
f 407/1/6 403/1/6 408/1/6
f 408/1/6 403/1/6 409/1/6
f 409/1/6 403/1/6 410/1/6
f 404/1/6 405/1/6 411/1/6
f 411/1/6 405/1/6 412/1/6
f 408/2/6 409/2/6 413/2/6
f 413/2/6 409/2/6 414/2/6
f 415/2/6 416/2/6 418/2/6
f 418/2/6 416/2/6 419/2/6
f 418/1/6 419/1/6 423/1/6
f 417/1/6 418/1/6 423/1/6
f 419/1/6 420/1/6 423/1/6
f 421/1/6 422/1/6 424/1/6
f 424/1/6 422/1/6 425/1/6
f 417/1/6 423/1/6 427/1/6
f 423/1/6 424/1/6 427/1/6
f 427/1/6 424/1/6 428/1/6
f 425/2/6 426/2/6 429/2/6
f 429/2/6 426/2/6 430/2/6
f 417/1/6 427/1/6 431/1/6
f 431/1/6 427/1/6 432/1/6
f 428/1/6 429/1/6 433/1/6
f 417/1/6 431/1/6 434/1/6
f 434/1/6 431/1/6 435/1/6
f 435/1/6 431/1/6 436/1/6
f 432/1/6 433/1/6 437/1/6
f 433/1/6 429/1/6 438/1/6
f 437/1/6 433/1/6 438/1/6
f 435/2/6 436/2/6 439/2/6
f 439/2/6 436/2/6 440/2/6
f 443/2/6 444/2/6 445/2/6
f 445/2/6 444/2/6 446/2/6
f 446/2/6 447/2/6 448/2/6
f 448/2/6 447/2/6 449/2/6
f 449/2/6 450/2/6 452/2/6
f 452/2/6 450/2/6 453/2/6
f 441/1/6 442/1/6 454/1/6
f 454/1/6 442/1/6 455/1/6
f 451/2/6 452/2/6 457/2/6
f 457/2/6 452/2/6 458/2/6
f 456/2/6 457/2/6 459/2/6
f 459/2/6 457/2/6 460/2/6
f 461/2/6 462/2/6 465/2/6
f 465/2/6 462/2/6 466/2/6
f 466/2/6 467/2/6 468/2/6
f 468/2/6 467/2/6 469/2/6
f 469/2/6 470/2/6 472/2/6
f 472/2/6 470/2/6 473/2/6
f 471/2/6 472/2/6 475/2/6
f 475/2/6 472/2/6 476/2/6
f 463/1/6 464/1/6 477/1/6
f 477/1/6 464/1/6 478/1/6
f 474/2/6 475/2/6 479/2/6
f 479/2/6 475/2/6 480/2/6
