# MagicaVoxel @ Ephtracy

# group
o 

# material
mtllib new_main_mc_torso.mtl
usemtl palette

# normals
vn -1 0 0
vn 1 0 0
vn 0 0 1
vn 0 0 -1
vn 0 -1 0
vn 0 1 0

# texcoords
vt 0.0332031 0.5
vt 0.904297 0.5
vt 0.958984 0.5

# verts
v -0.5 2.9 0.9
v -0.5 2.9 -0.9
v -0.5 6 0.9
v -0.5 6 -0.9
v -0.1 6 0.4
v -0.1 6 -0.4
v -0.1 6.4 0.4
v -0.1 6.4 -0.4
v 0.5 6 0.4
v 0.5 6 -0.4
v 0.5 6.4 0.4
v 0.5 6.4 -0.4
v 0.6 2.9 0.9
v 0.6 2.9 -0.9
v 0.6 4.3 0.1
v 0.6 4.3 -0.1
v 0.6 4.4 0.2
v 0.6 4.4 0.1
v 0.6 4.4 -0.1
v 0.6 4.4 -0.2
v 0.6 4.5 0.3
v 0.6 4.5 0.2
v 0.6 4.5 -0.2
v 0.6 4.5 -0.3
v 0.6 4.9 0.7
v 0.6 4.9 0.3
v 0.6 4.9 -0.3
v 0.6 4.9 -0.7
v 0.6 5.1 0.7
v 0.6 5.1 0.6
v 0.6 5.1 -0.6
v 0.6 5.1 -0.7
v 0.6 5.2 0.6
v 0.6 5.2 0.5
v 0.6 5.2 -0.5
v 0.6 5.2 -0.6
v 0.6 5.3 0.5
v 0.6 5.3 0.3
v 0.6 5.3 -0.3
v 0.6 5.3 -0.5
v 0.6 5.7 0.5
v 0.6 5.7 -0.5
v 0.6 6 0.9
v 0.6 6 0.5
v 0.6 6 -0.5
v 0.6 6 -0.9
v -0.5 2.9 0.9
v -0.5 6 0.9
v 0.6 2.9 0.9
v 0.6 6 0.9
v -0.1 6 0.4
v -0.1 6.4 0.4
v 0.5 6 0.4
v 0.5 6.4 0.4
v -0.1 6 -0.4
v -0.1 6.4 -0.4
v 0.5 6 -0.4
v 0.5 6.4 -0.4
v -0.5 2.9 -0.9
v -0.5 6 -0.9
v 0.6 2.9 -0.9
v 0.6 6 -0.9
v -0.5 2.9 0.9
v 0.6 2.9 0.9
v -0.5 2.9 -0.9
v 0.6 2.9 -0.9
v -0.5 6 0.9
v 0.6 6 0.9
v -0.2 6 0.5
v 0.6 6 0.5
v -0.1 6 0.4
v 0.5 6 0.4
v -0.1 6 -0.4
v 0.5 6 -0.4
v -0.2 6 -0.5
v 0.6 6 -0.5
v -0.5 6 -0.9
v 0.6 6 -0.9
v -0.1 6.4 0.4
v 0.5 6.4 0.4
v -0.1 6.4 -0.4
v 0.5 6.4 -0.4

# faces
f 3/2/1 2/2/1 1/2/1
f 4/2/1 2/2/1 3/2/1
f 7/1/1 6/1/1 5/1/1
f 8/1/1 6/1/1 7/1/1
f 9/1/2 10/1/2 11/1/2
f 11/1/2 10/1/2 12/1/2
f 13/2/2 14/2/2 15/2/2
f 15/2/2 14/2/2 16/2/2
f 13/2/2 15/2/2 17/2/2
f 15/3/2 16/3/2 18/3/2
f 17/2/2 15/2/2 18/2/2
f 16/2/2 14/2/2 19/2/2
f 18/3/2 16/3/2 19/3/2
f 19/2/2 14/2/2 20/2/2
f 13/2/2 17/2/2 21/2/2
f 17/3/2 18/3/2 22/3/2
f 21/2/2 17/2/2 22/2/2
f 18/3/2 19/3/2 22/3/2
f 19/3/2 20/3/2 22/3/2
f 20/2/2 14/2/2 23/2/2
f 22/3/2 20/3/2 23/3/2
f 23/2/2 14/2/2 24/2/2
f 13/2/2 21/2/2 25/2/2
f 21/3/2 22/3/2 26/3/2
f 25/2/2 21/2/2 26/2/2
f 22/3/2 23/3/2 26/3/2
f 23/3/2 24/3/2 26/3/2
f 24/2/2 14/2/2 27/2/2
f 26/3/2 24/3/2 27/3/2
f 27/2/2 14/2/2 28/2/2
f 25/3/2 26/3/2 29/3/2
f 13/2/2 25/2/2 29/2/2
f 29/3/2 26/3/2 30/3/2
f 27/3/2 28/3/2 31/3/2
f 28/2/2 14/2/2 32/2/2
f 31/3/2 28/3/2 32/3/2
f 30/3/2 26/3/2 33/3/2
f 29/2/2 30/2/2 33/2/2
f 33/3/2 26/3/2 34/3/2
f 27/3/2 31/3/2 35/3/2
f 31/2/2 32/2/2 36/2/2
f 35/3/2 31/3/2 36/3/2
f 34/3/2 26/3/2 37/3/2
f 33/2/2 34/2/2 37/2/2
f 26/2/2 27/2/2 38/2/2
f 37/3/2 26/3/2 38/3/2
f 27/3/2 35/3/2 39/3/2
f 38/2/2 27/2/2 39/2/2
f 35/2/2 36/2/2 40/2/2
f 39/3/2 35/3/2 40/3/2
f 33/2/2 37/2/2 41/2/2
f 37/2/2 38/2/2 41/2/2
f 39/2/2 40/2/2 41/2/2
f 38/2/2 39/2/2 41/2/2
f 40/2/2 36/2/2 42/2/2
f 41/2/2 40/2/2 42/2/2
f 33/2/2 41/2/2 43/2/2
f 13/2/2 29/2/2 43/2/2
f 29/2/2 33/2/2 43/2/2
f 41/1/2 42/1/2 44/1/2
f 43/2/2 41/2/2 44/2/2
f 42/2/2 36/2/2 45/2/2
f 44/1/2 42/1/2 45/1/2
f 36/2/2 32/2/2 46/2/2
f 45/2/2 36/2/2 46/2/2
f 32/2/2 14/2/2 46/2/2
f 49/2/3 48/2/3 47/2/3
f 50/2/3 48/2/3 49/2/3
f 53/1/3 52/1/3 51/1/3
f 54/1/3 52/1/3 53/1/3
f 55/1/4 56/1/4 57/1/4
f 57/1/4 56/1/4 58/1/4
f 59/2/4 60/2/4 61/2/4
f 61/2/4 60/2/4 62/2/4
f 65/2/5 64/2/5 63/2/5
f 66/2/5 64/2/5 65/2/5
f 67/2/6 68/2/6 69/2/6
f 69/2/6 68/2/6 70/2/6
f 69/1/6 70/1/6 71/1/6
f 71/1/6 70/1/6 72/1/6
f 69/1/6 71/1/6 73/1/6
f 72/1/6 70/1/6 74/1/6
f 67/2/6 69/2/6 75/2/6
f 73/1/6 74/1/6 75/1/6
f 69/1/6 73/1/6 75/1/6
f 74/1/6 70/1/6 76/1/6
f 75/1/6 74/1/6 76/1/6
f 67/2/6 75/2/6 77/2/6
f 75/2/6 76/2/6 77/2/6
f 77/2/6 76/2/6 78/2/6
f 79/1/6 80/1/6 81/1/6
f 81/1/6 80/1/6 82/1/6
