# MagicaVoxel @ Ephtracy

# group
o 

# material
mtllib new_main_mc_head.mtl
usemtl palette

# normals
vn -1 0 0
vn 1 0 0
vn 0 0 1
vn 0 0 -1
vn 0 -1 0
vn 0 1 0

# texcoords
vt 0.0332031 0.5
vt 0.537109 0.5
vt 0.990234 0.5

# verts
v -1 6.7 1.1
v -1 6.7 -1.1
v -1 8 1.1
v -1 8 -1.1
v -0.7 6.4 0.9
v -0.7 6.4 -0.9
v -0.7 6.7 0.9
v -0.7 6.7 -0.9
v 0.2 6.7 1.1
v 0.2 6.7 0.9
v 0.2 6.7 -0.9
v 0.2 6.7 -1.1
v 0.2 7 1.1
v 0.2 7 0.9
v 0.2 7 -0.9
v 0.2 7 -1.1
v -0.0999999 6.7 1.1
v -0.0999999 6.7 0.9
v -0.0999999 6.7 -0.9
v -0.0999999 6.7 -1.1
v -0.0999999 7 1.1
v -0.0999999 7 0.9
v -0.0999999 7 -0.9
v -0.0999999 7 -1.1
v 0.4 6.7 1.1
v 0.4 6.7 0.9
v 0.4 6.7 -0.9
v 0.4 6.7 -1.1
v 0.4 7 1.1
v 0.4 7 0.9
v 0.4 7 -0.9
v 0.4 7 -1.1
v 0.4 7.1 -0.9
v 0.4 7.1 -1.1
v 0.4 7.2 1.1
v 0.4 7.2 0.9
v 0.7 7.1 -0.9
v 0.7 7.1 -1.1
v 0.7 7.4 -0.9
v 0.7 7.4 -1.1
v 0.8 7.2 1.1
v 0.8 7.2 0.9
v 0.8 7.4 1.1
v 0.8 7.4 0.9
v 1 6.4 0.9
v 1 6.4 -0.9
v 1 7 0.5
v 1 7 0.3
v 1 7 -0.3
v 1 7 -0.5
v 1 7.2 0.5
v 1 7.2 0.3
v 1 7.2 -0.3
v 1 7.2 -0.5
v 1 7.4 1.1
v 1 7.4 0.9
v 1 7.4 0.7
v 1 7.4 -0.7
v 1 7.4 -0.9
v 1 7.4 -1.1
v 1 7.6 0.7
v 1 7.6 -0.7
v 1 8 1.1
v 1 8 -1.1
v -1 6.7 1.1
v -1 8 1.1
v -0.0999999 6.7 1.1
v -0.0999999 7 1.1
v 0.2 6.7 1.1
v 0.2 7 1.1
v 0.4 6.7 1.1
v 0.4 7 1.1
v 0.4 7.2 1.1
v 0.8 7.2 1.1
v 0.8 7.4 1.1
v 1 7.4 1.1
v 1 8 1.1
v -0.7 6.4 0.9
v -0.7 6.7 0.9
v -0.0999999 6.7 0.9
v -0.0999999 7 0.9
v 0.2 6.7 0.9
v 0.2 7 0.9
v 0.4 6.7 0.9
v 0.4 7 0.9
v 0.4 7.2 0.9
v 0.8 7.2 0.9
v 0.8 7.4 0.9
v 1 6.4 0.9
v 1 7.4 0.9
v -0.7 6.4 -0.9
v -0.7 6.7 -0.9
v -0.0999999 6.7 -0.9
v -0.0999999 7 -0.9
v 0.2 6.7 -0.9
v 0.2 7 -0.9
v 0.4 6.7 -0.9
v 0.4 7 -0.9
v 0.4 7.1 -0.9
v 0.7 7.1 -0.9
v 0.7 7.4 -0.9
v 1 6.4 -0.9
v 1 7.4 -0.9
v -1 6.7 -1.1
v -1 8 -1.1
v -0.0999999 6.7 -1.1
v -0.0999999 7 -1.1
v 0.2 6.7 -1.1
v 0.2 7 -1.1
v 0.4 6.7 -1.1
v 0.4 7 -1.1
v 0.4 7.1 -1.1
v 0.7 7.1 -1.1
v 0.7 7.4 -1.1
v 1 7.4 -1.1
v 1 8 -1.1
v -0.7 6.4 0.9
v 1 6.4 0.9
v -0.7 6.4 -0.9
v 1 6.4 -0.9
v -1 6.7 1.1
v -0.0999999 6.7 1.1
v 0.2 6.7 1.1
v 0.4 6.7 1.1
v -0.7 6.7 0.9
v -0.0999999 6.7 0.9
v 0.2 6.7 0.9
v 0.4 6.7 0.9
v -0.7 6.7 -0.9
v -0.0999999 6.7 -0.9
v 0.2 6.7 -0.9
v 0.4 6.7 -0.9
v -1 6.7 -1.1
v -0.0999999 6.7 -1.1
v 0.2 6.7 -1.1
v 0.4 6.7 -1.1
v -0.0999999 7 1.1
v 0.2 7 1.1
v -0.0999999 7 0.9
v 0.2 7 0.9
v -0.0999999 7 -0.9
v 0.2 7 -0.9
v -0.0999999 7 -1.1
v 0.2 7 -1.1
v 0.4 7.1 -0.9
v 0.7 7.1 -0.9
v 0.4 7.1 -1.1
v 0.7 7.1 -1.1
v 0.4 7.2 1.1
v 0.8 7.2 1.1
v 0.4 7.2 0.9
v 0.8 7.2 0.9
v 0.8 7.4 1.1
v 1 7.4 1.1
v 0.8 7.4 0.9
v 1 7.4 0.9
v 0.7 7.4 -0.9
v 1 7.4 -0.9
v 0.7 7.4 -1.1
v 1 7.4 -1.1
v -1 8 1.1
v 1 8 1.1
v -1 8 -1.1
v 1 8 -1.1

# faces
f 3/3/1 2/3/1 1/3/1
f 4/3/1 2/3/1 3/3/1
f 7/1/1 6/1/1 5/1/1
f 8/1/1 6/1/1 7/1/1
f 13/1/1 10/1/1 9/1/1
f 14/1/1 10/1/1 13/1/1
f 15/1/1 12/1/1 11/1/1
f 16/1/1 12/1/1 15/1/1
f 17/3/2 18/3/2 21/3/2
f 21/3/2 18/3/2 22/3/2
f 19/3/2 20/3/2 23/3/2
f 23/3/2 20/3/2 24/3/2
f 25/1/2 26/1/2 29/1/2
f 29/1/2 26/1/2 30/1/2
f 27/1/2 28/1/2 31/1/2
f 31/1/2 28/1/2 32/1/2
f 31/3/2 32/3/2 33/3/2
f 33/3/2 32/3/2 34/3/2
f 29/3/2 30/3/2 35/3/2
f 35/3/2 30/3/2 36/3/2
f 37/3/2 38/3/2 39/3/2
f 39/3/2 38/3/2 40/3/2
f 41/3/2 42/3/2 43/3/2
f 43/3/2 42/3/2 44/3/2
f 45/1/2 46/1/2 47/1/2
f 47/1/2 46/1/2 48/1/2
f 48/1/2 46/1/2 49/1/2
f 49/1/2 46/1/2 50/1/2
f 45/1/2 47/1/2 51/1/2
f 47/2/2 48/2/2 51/2/2
f 48/1/2 49/1/2 52/1/2
f 51/2/2 48/2/2 52/2/2
f 49/2/2 50/2/2 53/2/2
f 52/1/2 49/1/2 53/1/2
f 50/1/2 46/1/2 54/1/2
f 53/2/2 50/2/2 54/2/2
f 52/1/2 53/1/2 56/1/2
f 51/1/2 52/1/2 56/1/2
f 53/1/2 54/1/2 56/1/2
f 45/1/2 51/1/2 56/1/2
f 56/1/2 54/1/2 57/1/2
f 54/1/2 46/1/2 58/1/2
f 57/1/2 54/1/2 58/1/2
f 58/1/2 46/1/2 59/1/2
f 56/3/2 57/3/2 61/3/2
f 55/3/2 56/3/2 61/3/2
f 57/1/2 58/1/2 61/1/2
f 59/3/2 60/3/2 62/3/2
f 61/1/2 58/1/2 62/1/2
f 58/3/2 59/3/2 62/3/2
f 55/3/2 61/3/2 63/3/2
f 61/3/2 62/3/2 63/3/2
f 62/3/2 60/3/2 64/3/2
f 63/3/2 62/3/2 64/3/2
f 67/3/3 66/3/3 65/3/3
f 68/3/3 66/3/3 67/3/3
f 70/3/3 66/3/3 68/3/3
f 71/1/3 70/1/3 69/1/3
f 72/3/3 66/3/3 70/3/3
f 72/1/3 70/1/3 71/1/3
f 73/3/3 66/3/3 72/3/3
f 74/3/3 66/3/3 73/3/3
f 75/3/3 66/3/3 74/3/3
f 76/3/3 66/3/3 75/3/3
f 77/3/3 66/3/3 76/3/3
f 80/1/3 79/1/3 78/1/3
f 82/1/3 80/1/3 78/1/3
f 82/1/3 81/1/3 80/1/3
f 83/1/3 81/1/3 82/1/3
f 84/1/3 82/1/3 78/1/3
f 87/1/3 85/1/3 84/1/3
f 87/1/3 86/1/3 85/1/3
f 89/1/3 84/1/3 78/1/3
f 89/1/3 88/1/3 87/1/3
f 89/1/3 87/1/3 84/1/3
f 90/1/3 88/1/3 89/1/3
f 91/1/4 92/1/4 93/1/4
f 91/1/4 93/1/4 95/1/4
f 93/1/4 94/1/4 95/1/4
f 95/1/4 94/1/4 96/1/4
f 91/1/4 95/1/4 97/1/4
f 97/1/4 98/1/4 100/1/4
f 98/1/4 99/1/4 100/1/4
f 91/1/4 97/1/4 102/1/4
f 100/1/4 101/1/4 102/1/4
f 97/1/4 100/1/4 102/1/4
f 102/1/4 101/1/4 103/1/4
f 104/3/4 105/3/4 106/3/4
f 106/3/4 105/3/4 107/3/4
f 107/3/4 105/3/4 109/3/4
f 108/1/4 109/1/4 110/1/4
f 109/3/4 105/3/4 111/3/4
f 110/1/4 109/1/4 111/1/4
f 111/3/4 105/3/4 112/3/4
f 112/3/4 105/3/4 113/3/4
f 113/3/4 105/3/4 114/3/4
f 114/3/4 105/3/4 115/3/4
f 115/3/4 105/3/4 116/3/4
f 119/1/5 118/1/5 117/1/5
f 120/1/5 118/1/5 119/1/5
f 125/3/5 122/3/5 121/3/5
f 126/3/5 122/3/5 125/3/5
f 127/1/5 124/1/5 123/1/5
f 128/1/5 124/1/5 127/1/5
f 129/3/5 125/3/5 121/3/5
f 133/3/5 129/3/5 121/3/5
f 133/3/5 130/3/5 129/3/5
f 134/3/5 130/3/5 133/3/5
f 135/1/5 132/1/5 131/1/5
f 136/1/5 132/1/5 135/1/5
f 139/3/5 138/3/5 137/3/5
f 140/3/5 138/3/5 139/3/5
f 143/3/5 142/3/5 141/3/5
f 144/3/5 142/3/5 143/3/5
f 147/3/5 146/3/5 145/3/5
f 148/3/5 146/3/5 147/3/5
f 151/3/5 150/3/5 149/3/5
f 152/3/5 150/3/5 151/3/5
f 155/3/5 154/3/5 153/3/5
f 156/3/5 154/3/5 155/3/5
f 159/3/5 158/3/5 157/3/5
f 160/3/5 158/3/5 159/3/5
f 161/3/6 162/3/6 163/3/6
f 163/3/6 162/3/6 164/3/6
