# MagicaVoxel @ Ephtracy

# group
o 

# material
mtllib new_main_mc_arms.mtl
usemtl palette

# normals
vn -1 0 0
vn 1 0 0
vn 0 0 1
vn 0 0 -1
vn 0 -1 0
vn 0 1 0

# texcoords
vt 0.0332031 0.5
vt 0.904297 0.5

# verts
v -0.0999999 3.2 1.2
v -0.0999999 3.2 1
v -0.0999999 4.9 1.3
v -0.0999999 4.9 1.2
v -0.0999999 4.9 1
v -0.0999999 5.9 1.3
v -0.0999999 5.9 1
v 7.45058e-08 3.2 1
v 7.45058e-08 3.2 0.9
v 7.45058e-08 3.2 -0.9
v 7.45058e-08 3.2 -1.2
v 7.45058e-08 4.9 1
v 7.45058e-08 4.9 0.9
v 7.45058e-08 4.9 -0.9
v 7.45058e-08 4.9 -1.2
v 7.45058e-08 4.9 -1.3
v 7.45058e-08 5.9 1
v 7.45058e-08 5.9 0.9
v 7.45058e-08 5.9 -0.9
v 7.45058e-08 5.9 -1.3
v 0.3 3.6 1.2
v 0.3 3.6 0.9
v 0.3 4.9 1.2
v 0.3 4.9 0.9
v 0.4 3.2 1.2
v 0.4 3.2 0.9
v 0.4 3.6 1.2
v 0.4 3.6 0.9
v 0.4 3.6 -0.9
v 0.4 3.6 -1.2
v 0.4 4.9 1.3
v 0.4 4.9 0.9
v 0.4 4.9 -0.9
v 0.4 4.9 -1.2
v 0.4 5.9 1.3
v 0.4 5.9 0.9
v 0.5 3.2 -0.9
v 0.5 3.2 -1.2
v 0.5 3.6 -0.9
v 0.5 3.6 -1.2
v 0.5 4.9 -0.9
v 0.5 4.9 -1.3
v 0.5 5.9 -0.9
v 0.5 5.9 -1.3
v -0.0999999 4.9 1.3
v -0.0999999 5.9 1.3
v 0.4 4.9 1.3
v 0.4 5.9 1.3
v -0.0999999 3.2 1.2
v -0.0999999 4.9 1.2
v 0.3 3.6 1.2
v 0.3 4.9 1.2
v 0.4 3.2 1.2
v 0.4 3.6 1.2
v 7.45058e-08 3.2 -0.9
v 7.45058e-08 4.9 -0.9
v 7.45058e-08 5.9 -0.9
v 0.4 3.6 -0.9
v 0.4 4.9 -0.9
v 0.5 3.2 -0.9
v 0.5 3.6 -0.9
v 0.5 4.9 -0.9
v 0.5 5.9 -0.9
v -0.0999999 3.2 1
v -0.0999999 4.9 1
v -0.0999999 5.9 1
v 7.45058e-08 3.2 1
v 7.45058e-08 4.9 1
v 7.45058e-08 5.9 1
v 7.45058e-08 3.2 0.9
v 7.45058e-08 4.9 0.9
v 7.45058e-08 5.9 0.9
v 0.3 3.6 0.9
v 0.3 4.9 0.9
v 0.4 3.2 0.9
v 0.4 3.6 0.9
v 0.4 4.9 0.9
v 0.4 5.9 0.9
v 7.45058e-08 3.2 -1.2
v 7.45058e-08 4.9 -1.2
v 0.4 3.6 -1.2
v 0.4 4.9 -1.2
v 0.5 3.2 -1.2
v 0.5 3.6 -1.2
v 7.45058e-08 4.9 -1.3
v 7.45058e-08 5.9 -1.3
v 0.5 4.9 -1.3
v 0.5 5.9 -1.3
v -0.0999999 3.2 1.2
v 0.4 3.2 1.2
v -0.0999999 3.2 1
v 7.45058e-08 3.2 1
v 7.45058e-08 3.2 0.9
v 0.4 3.2 0.9
v 7.45058e-08 3.2 -0.9
v 0.5 3.2 -0.9
v 7.45058e-08 3.2 -1.2
v 0.5 3.2 -1.2
v -0.0999999 4.9 1.3
v 0.4 4.9 1.3
v -0.0999999 4.9 1.2
v 0.3 4.9 1.2
v 0.3 4.9 0.9
v 0.4 4.9 0.9
v 0.4 4.9 -0.9
v 0.5 4.9 -0.9
v 7.45058e-08 4.9 -1.2
v 0.4 4.9 -1.2
v 7.45058e-08 4.9 -1.3
v 0.5 4.9 -1.3
v 0.3 3.6 1.2
v 0.4 3.6 1.2
v 0.3 3.6 0.9
v 0.4 3.6 0.9
v 0.4 3.6 -0.9
v 0.5 3.6 -0.9
v 0.4 3.6 -1.2
v 0.5 3.6 -1.2
v -0.0999999 5.9 1.3
v 0.4 5.9 1.3
v -0.0999999 5.9 1
v 7.45058e-08 5.9 1
v 7.45058e-08 5.9 0.9
v 0.4 5.9 0.9
v 7.45058e-08 5.9 -0.9
v 0.5 5.9 -0.9
v 7.45058e-08 5.9 -1.3
v 0.5 5.9 -1.3

# faces
f 4/1/1 2/1/1 1/1/1
f 5/1/1 2/1/1 4/1/1
f 6/2/1 4/2/1 3/2/1
f 6/2/1 5/2/1 4/2/1
f 7/2/1 5/2/1 6/2/1
f 12/1/1 9/1/1 8/1/1
f 13/1/1 9/1/1 12/1/1
f 14/1/1 11/1/1 10/1/1
f 15/1/1 11/1/1 14/1/1
f 17/2/1 13/2/1 12/2/1
f 18/2/1 13/2/1 17/2/1
f 19/2/1 16/2/1 15/2/1
f 19/2/1 15/2/1 14/2/1
f 20/2/1 16/2/1 19/2/1
f 21/1/2 22/1/2 23/1/2
f 23/1/2 22/1/2 24/1/2
f 25/1/2 26/1/2 27/1/2
f 27/1/2 26/1/2 28/1/2
f 29/1/2 30/1/2 33/1/2
f 33/1/2 30/1/2 34/1/2
f 31/2/2 32/2/2 35/2/2
f 35/2/2 32/2/2 36/2/2
f 37/1/2 38/1/2 39/1/2
f 39/1/2 38/1/2 40/1/2
f 41/2/2 42/2/2 43/2/2
f 43/2/2 42/2/2 44/2/2
f 47/2/3 46/2/3 45/2/3
f 48/2/3 46/2/3 47/2/3
f 51/1/3 50/1/3 49/1/3
f 52/1/3 50/1/3 51/1/3
f 53/1/3 51/1/3 49/1/3
f 54/1/3 51/1/3 53/1/3
f 58/1/3 56/1/3 55/1/3
f 59/2/3 57/2/3 56/2/3
f 59/1/3 56/1/3 58/1/3
f 60/1/3 58/1/3 55/1/3
f 61/1/3 58/1/3 60/1/3
f 62/2/3 57/2/3 59/2/3
f 63/2/3 57/2/3 62/2/3
f 64/1/4 65/1/4 67/1/4
f 65/2/4 66/2/4 68/2/4
f 67/1/4 65/1/4 68/1/4
f 68/2/4 66/2/4 69/2/4
f 70/1/4 71/1/4 73/1/4
f 71/2/4 72/2/4 74/2/4
f 73/1/4 71/1/4 74/1/4
f 70/1/4 73/1/4 75/1/4
f 75/1/4 73/1/4 76/1/4
f 74/2/4 72/2/4 77/2/4
f 77/2/4 72/2/4 78/2/4
f 79/1/4 80/1/4 81/1/4
f 81/1/4 80/1/4 82/1/4
f 79/1/4 81/1/4 83/1/4
f 83/1/4 81/1/4 84/1/4
f 85/2/4 86/2/4 87/2/4
f 87/2/4 86/2/4 88/2/4
f 91/1/5 90/1/5 89/1/5
f 92/1/5 90/1/5 91/1/5
f 93/1/5 90/1/5 92/1/5
f 94/1/5 90/1/5 93/1/5
f 97/1/5 96/1/5 95/1/5
f 98/1/5 96/1/5 97/1/5
f 101/2/5 100/2/5 99/2/5
f 102/2/5 100/2/5 101/2/5
f 103/2/5 100/2/5 102/2/5
f 104/2/5 100/2/5 103/2/5
f 108/2/5 106/2/5 105/2/5
f 109/2/5 108/2/5 107/2/5
f 110/2/5 106/2/5 108/2/5
f 110/2/5 108/2/5 109/2/5
f 111/1/6 112/1/6 113/1/6
f 113/1/6 112/1/6 114/1/6
f 115/1/6 116/1/6 117/1/6
f 117/1/6 116/1/6 118/1/6
f 119/2/6 120/2/6 121/2/6
f 121/2/6 120/2/6 122/2/6
f 122/2/6 120/2/6 123/2/6
f 123/2/6 120/2/6 124/2/6
f 125/2/6 126/2/6 127/2/6
f 127/2/6 126/2/6 128/2/6
